<?xml version="1.0" encoding="utf-8"?>
<svg viewBox="0 0 247.193 295.401" xmlns="http://www.w3.org/2000/svg">
  <defs>
    <radialGradient gradientUnits="userSpaceOnUse" cx="124.514" cy="148.52" r="117.366" id="gradient-0" spreadMethod="pad">
      <stop offset="0" style="stop-color: rgba(238, 187, 91, 1)"/>
      <stop offset="1" style="stop-color: rgba(206, 141, 21, 1)"/>
    </radialGradient>
  </defs>
  <g transform="matrix(1, 0, 0, 1, -24, 0.117981)"/>
  <g transform="matrix(1, 0, 0, 1, -24, 0.117981)"/>
  <g transform="matrix(1, 0, 0, 1, -24, 0.117981)"/>
  <g transform="matrix(1, 0, 0, 1, -24, 0.117981)"/>
  <g transform="matrix(1, 0, 0, 1, -24, 0.117981)"/>
  <g transform="matrix(1, 0, 0, 1, -24, 0.117981)"/>
  <g transform="matrix(1, 0, 0, 1, -24, 0.117981)"/>
  <g transform="matrix(1, 0, 0, 1, -24, 0.117981)"/>
  <g transform="matrix(1, 0, 0, 1, -24, 0.117981)"/>
  <g transform="matrix(1, 0, 0, 1, -24, 0.117981)"/>
  <g transform="matrix(1, 0, 0, 1, -24, 0.117981)"/>
  <g transform="matrix(1, 0, 0, 1, -24, 0.117981)"/>
  <g transform="matrix(1, 0, 0, 1, -24, 0.117981)"/>
  <g transform="matrix(1, 0, 0, 1, -24, 0.117981)"/>
  <g transform="matrix(1, 0, 0, 1, -24, 0.117981)"/>
  <path style="stroke: rgb(0, 0, 0); fill: url(#gradient-0); paint-order: stroke;" d="M 92.441 17.586 L 28.295 91.952 L 7.148 175.483 L 27.238 250.907 L 101.252 291.438 L 197.47 274.168 L 241.879 206.146 L 228.486 119.796 L 176.323 32.741 L 124.866 5.603 L 92.441 17.586 Z"/>
  <path d="M 195.653 131.805 C 196.768 136.08 194.207 140.451 189.931 141.566 C 189.254 141.742 188.575 141.827 187.906 141.827 C 184.353 141.827 181.11 139.443 180.171 135.845 C 169.388 94.51 143.409 59.589 123.442 59.589 C 119.024 59.589 115.442 56.007 115.442 51.589 C 115.442 47.171 119.024 43.589 123.442 43.589 C 155.396 43.588 184.496 89.039 195.653 131.805 Z M 246.954 182.63 C 246.954 214.984 237.226 242.238 218.823 261.446 C 197.491 283.711 165.4 295 123.442 295 C 81.483 295 49.392 283.711 28.059 261.446 C 9.656 242.238 -0.072 214.983 -0.072 182.63 C -0.072 143.563 14.306 98.208 38.39 61.307 C 63.77 22.42 94.77 0.118 123.442 0.118 C 152.114 0.118 183.113 22.42 208.492 61.306 C 232.576 98.208 246.954 143.563 246.954 182.63 Z M 230.954 182.63 C 230.954 106.377 172.676 16.118 123.442 16.118 C 74.207 16.118 15.928 106.377 15.928 182.63 C 15.928 210.778 24.117 234.205 39.613 250.377 C 57.81 269.37 86.014 279 123.442 279 C 160.869 279 189.073 269.37 207.27 250.377 C 222.764 234.205 230.954 210.778 230.954 182.63 Z" style="fill: rgb(255, 197, 116);"/>
</svg>