<?xml version="1.0" encoding="utf-8"?>
<svg viewBox="32.398 46.473 419.69 317.18" xmlns="http://www.w3.org/2000/svg" xmlns:bx="https://boxy-svg.com">
  <defs>
    <radialGradient gradientUnits="userSpaceOnUse" cx="124.514" cy="148.52" r="117.366" id="gradient-0" spreadMethod="pad" gradientTransform="matrix(1, 0, 0, 1, 82.406258, 39.791843)">
      <stop offset="0" style="stop-color: rgba(238, 187, 91, 1)"/>
      <stop offset="1" style="stop-color: rgba(206, 141, 21, 1)"/>
    </radialGradient>
  </defs>
  <g transform="matrix(0.821311, 0, 0, 0.821311, -2.837999, 167.360041)" style=""/>
  <g transform="matrix(0.821311, 0, 0, 0.821311, -2.837999, 167.360041)" style=""/>
  <g transform="matrix(0.821311, 0, 0, 0.821311, -2.837999, 167.360041)" style=""/>
  <g transform="matrix(0.821311, 0, 0, 0.821311, -2.837999, 167.360041)" style=""/>
  <g transform="matrix(0.821311, 0, 0, 0.821311, -2.837999, 167.360041)" style=""/>
  <g transform="matrix(0.821311, 0, 0, 0.821311, -2.837999, 167.360041)" style=""/>
  <g transform="matrix(0.821311, 0, 0, 0.821311, -2.837999, 167.360041)" style=""/>
  <g transform="matrix(0.821311, 0, 0, 0.821311, -2.837999, 167.360041)" style=""/>
  <g transform="matrix(0.821311, 0, 0, 0.821311, -2.837999, 167.360041)" style=""/>
  <g transform="matrix(0.821311, 0, 0, 0.821311, -2.837999, 167.360041)" style=""/>
  <g transform="matrix(0.821311, 0, 0, 0.821311, -2.837999, 167.360041)" style=""/>
  <g transform="matrix(0.821311, 0, 0, 0.821311, -2.837999, 167.360041)" style=""/>
  <g transform="matrix(0.821311, 0, 0, 0.821311, -2.837999, 167.360041)" style=""/>
  <g transform="matrix(0.821311, 0, 0, 0.821311, -2.837999, 167.360041)" style=""/>
  <g transform="matrix(0.821311, 0, 0, 0.821311, -2.837999, 167.360041)" style=""/>
  <g transform="matrix(1, 0, 0, 1, 58.406254, 39.909824)"/>
  <g transform="matrix(1, 0, 0, 1, 58.406254, 39.909824)"/>
  <g transform="matrix(1, 0, 0, 1, 58.406254, 39.909824)"/>
  <g transform="matrix(1, 0, 0, 1, 58.406254, 39.909824)"/>
  <g transform="matrix(1, 0, 0, 1, 58.406254, 39.909824)"/>
  <g transform="matrix(1, 0, 0, 1, 58.406254, 39.909824)"/>
  <g transform="matrix(1, 0, 0, 1, 58.406254, 39.909824)"/>
  <g transform="matrix(1, 0, 0, 1, 58.406254, 39.909824)"/>
  <g transform="matrix(1, 0, 0, 1, 58.406254, 39.909824)"/>
  <g transform="matrix(1, 0, 0, 1, 58.406254, 39.909824)"/>
  <g transform="matrix(1, 0, 0, 1, 58.406254, 39.909824)"/>
  <g transform="matrix(1, 0, 0, 1, 58.406254, 39.909824)"/>
  <g transform="matrix(1, 0, 0, 1, 58.406254, 39.909824)"/>
  <g transform="matrix(1, 0, 0, 1, 58.406254, 39.909824)"/>
  <g transform="matrix(1, 0, 0, 1, 58.406254, 39.909824)"/>
  <g transform="matrix(1, 0, 0, 1, -0.000206, -0.000148)" bx:origin="0.501 0.725">
    <g transform="matrix(1, 0, 0, 1, 37.5895, 6.563246)">
      <path style="stroke: rgb(0, 0, 0); fill: url(#gradient-0); paint-order: stroke;" d="M 174.847 57.378 L 110.701 131.744 L 89.554 215.275 L 109.644 290.699 L 183.658 331.23 L 279.876 313.96 L 324.285 245.938 L 310.892 159.588 L 258.729 72.533 L 207.272 45.395 L 174.847 57.378 Z"/>
      <path d="M 278.059 171.597 C 279.174 175.872 276.613 180.243 272.337 181.358 C 271.66 181.534 270.981 181.619 270.312 181.619 C 266.759 181.619 263.516 179.235 262.577 175.637 C 251.794 134.302 225.815 99.381 205.848 99.381 C 201.43 99.381 197.848 95.799 197.848 91.381 C 197.848 86.963 201.43 83.381 205.848 83.381 C 237.802 83.38 266.902 128.831 278.059 171.597 Z M 329.36 222.422 C 329.36 254.776 319.632 282.03 301.229 301.238 C 279.897 323.503 247.806 334.792 205.848 334.792 C 163.889 334.792 131.798 323.503 110.465 301.238 C 92.062 282.03 82.334 254.775 82.334 222.422 C 82.334 183.355 96.712 138 120.796 101.099 C 146.176 62.212 177.176 39.91 205.848 39.91 C 234.52 39.91 265.519 62.212 290.898 101.098 C 314.982 138 329.36 183.355 329.36 222.422 Z M 313.36 222.422 C 313.36 146.169 255.082 55.91 205.848 55.91 C 156.613 55.91 98.334 146.169 98.334 222.422 C 98.334 250.57 106.523 273.997 122.019 290.169 C 140.216 309.162 168.42 318.792 205.848 318.792 C 243.275 318.792 271.479 309.162 289.676 290.169 C 305.17 273.997 313.36 250.57 313.36 222.422 Z" style="fill: rgb(255, 197, 116);"/>
    </g>
    <g transform="matrix(1, 0, 0, 1, 34.606205, 1.783051)">
      <path style="stroke: rgb(0, 0, 0); fill: rgb(119, 90, 0);" d="M 24.158 199.852 L 29.899 266.718 L 44.421 309.269 L 90.011 340.676 L 152.487 355.197 L 228.133 356.886 L 305.468 346.755 L 354.436 325.479 L 383.141 287.994 L 390.571 244.092 L 390.571 198.839 L 24.158 199.852 Z"/>
      <path style="stroke: rgb(0, 0, 0); fill: rgb(255, 209, 134);" d="M 12.338 171.822 L 3.896 184.655 L 15.715 197.15 L 402.39 198.163 L 414.548 182.966 L 404.079 171.147 L 12.338 171.822 Z"/>
      <path d="M 398.182 165.577 L 397.771 165.577 L 17.504 165.577 L 17.093 165.577 C 6.451 165.577 -2.208 174.235 -2.208 184.877 C -2.208 195.52 6.451 204.178 17.093 204.178 L 17.524 204.178 C 17.515 204.315 17.504 204.45 17.504 204.589 C 17.504 250.959 19.635 291.629 45.826 319.73 C 72.99 348.874 122.894 361.87 207.637 361.87 C 217.11 361.87 226.145 361.707 234.764 361.377 C 234.766 361.377 234.769 361.377 234.772 361.377 C 234.806 361.377 234.838 361.373 234.871 361.372 C 257.494 360.504 277.235 358.487 294.395 355.239 C 294.502 355.222 294.608 355.201 294.714 355.177 C 329.282 348.591 353.356 336.993 369.448 319.729 C 376.419 312.249 381.672 303.871 385.648 294.739 C 385.822 294.422 385.963 294.094 386.077 293.756 C 396.645 268.764 397.771 238.174 397.771 204.589 C 397.771 204.45 397.759 204.315 397.75 204.178 L 398.182 204.178 C 408.824 204.178 417.482 195.52 417.482 184.877 C 417.482 174.235 408.824 165.577 398.182 165.577 Z M 377.768 280.592 L 374.221 277.045 L 380.412 270.854 C 379.65 274.19 378.773 277.439 377.768 280.592 Z M 325.703 333.655 L 321.657 329.609 L 339.228 312.038 L 348.697 321.507 C 342.156 326.147 334.518 330.194 325.703 333.655 Z M 283.936 344.451 L 269.093 329.608 L 286.664 312.037 L 304.235 329.608 L 290.527 343.317 C 288.373 343.715 286.174 344.092 283.936 344.451 Z M 125.196 343.403 L 111.401 329.608 L 128.972 312.037 L 146.542 329.607 L 131.651 344.498 C 129.462 344.15 127.302 343.789 125.196 343.403 Z M 66.789 321.656 L 76.407 312.038 L 93.979 329.609 L 89.833 333.754 C 81.004 330.308 73.346 326.279 66.789 321.656 Z M 29.852 212.918 L 41.415 224.48 L 30.443 235.452 C 30.071 228.165 29.91 220.64 29.852 212.918 Z M 34.76 270.39 L 41.415 277.044 L 37.592 280.867 C 36.503 277.484 35.569 273.986 34.76 270.39 Z M 32.555 250.762 L 50.126 233.191 L 67.697 250.761 L 50.126 268.332 L 32.555 250.762 Z M 330.516 250.762 L 312.945 268.333 L 295.374 250.762 L 312.945 233.191 L 330.516 250.762 Z M 321.657 224.48 L 339.228 206.909 L 356.799 224.48 L 339.228 242.051 L 321.657 224.48 Z M 260.381 285.756 L 277.952 303.327 L 260.381 320.898 L 242.81 303.327 L 260.381 285.756 Z M 234.099 294.615 L 216.528 277.044 L 234.099 259.474 L 251.67 277.045 L 234.099 294.615 Z M 269.093 277.044 L 286.664 259.473 L 304.235 277.044 L 286.664 294.615 L 269.093 277.044 Z M 286.663 242.051 L 269.092 224.48 L 286.663 206.91 L 304.234 224.481 L 286.663 242.051 Z M 277.952 250.762 L 260.381 268.333 L 242.81 250.762 L 260.381 233.191 L 277.952 250.762 Z M 234.099 242.051 L 216.528 224.481 L 234.099 206.91 L 251.67 224.48 L 234.099 242.051 Z M 225.388 250.762 L 207.817 268.333 L 190.246 250.762 L 207.817 233.191 L 225.388 250.762 Z M 155.253 285.756 L 172.824 303.326 L 155.252 320.897 L 137.682 303.327 L 155.253 285.756 Z M 128.971 294.615 L 111.4 277.044 L 128.971 259.473 L 146.542 277.044 L 128.971 294.615 Z M 163.965 277.044 L 181.536 259.473 L 199.107 277.043 L 181.536 294.614 L 163.965 277.044 Z M 181.535 242.051 L 163.964 224.48 L 181.535 206.909 L 199.106 224.48 L 181.535 242.051 Z M 172.824 250.762 L 155.253 268.333 L 137.682 250.762 L 155.253 233.191 L 172.824 250.762 Z M 128.971 242.051 L 111.4 224.48 L 128.971 206.91 L 146.542 224.481 L 128.971 242.051 Z M 120.261 250.762 L 102.689 268.333 L 85.118 250.762 L 102.689 233.192 L 120.261 250.762 Z M 76.407 242.051 L 58.836 224.481 L 76.407 206.91 L 93.979 224.48 L 76.407 242.051 Z M 76.407 259.474 L 93.979 277.045 L 76.407 294.616 L 58.836 277.045 L 76.407 259.474 Z M 102.689 285.756 L 120.261 303.327 L 102.689 320.898 L 85.118 303.327 L 102.689 285.756 Z M 155.253 338.319 L 165.132 348.198 C 158.835 347.762 152.791 347.221 147 346.571 L 155.253 338.319 Z M 163.964 329.608 L 181.535 312.037 L 199.106 329.608 L 181.535 347.179 L 163.964 329.608 Z M 190.246 303.326 L 207.817 285.756 L 225.388 303.327 L 207.817 320.898 L 190.246 303.326 Z M 234.099 312.038 L 251.67 329.609 L 234.099 347.18 L 216.528 329.609 L 234.099 312.038 Z M 260.381 338.32 L 268.595 346.534 C 262.826 347.187 256.804 347.73 250.531 348.169 L 260.381 338.32 Z M 312.945 320.897 L 295.374 303.326 L 312.945 285.755 L 330.516 303.326 L 312.945 320.897 Z M 321.657 277.044 L 339.228 259.473 L 356.799 277.044 L 339.228 294.615 L 321.657 277.044 Z M 347.939 250.762 L 365.51 233.191 L 383.081 250.762 L 365.51 268.333 L 347.939 250.762 Z M 374.221 224.48 L 385.419 213.282 C 385.36 220.755 385.202 228.043 384.849 235.109 L 374.221 224.48 Z M 365.509 215.769 L 353.918 204.178 L 377.1 204.178 L 365.509 215.769 Z M 312.945 215.769 L 301.354 204.178 L 324.536 204.178 L 312.945 215.769 Z M 260.381 215.769 L 248.79 204.178 L 271.972 204.178 L 260.381 215.769 Z M 207.817 215.769 L 196.226 204.178 L 219.408 204.178 L 207.817 215.769 Z M 155.253 215.769 L 143.662 204.178 L 166.844 204.178 L 155.253 215.769 Z M 102.689 215.769 L 91.098 204.178 L 114.281 204.178 L 102.689 215.769 Z M 50.125 215.769 L 38.534 204.178 L 61.717 204.178 L 50.125 215.769 Z M 42.564 293.317 L 50.125 285.755 L 67.697 303.326 L 57.24 313.782 C 56.416 312.979 55.614 312.162 54.839 311.33 C 49.808 305.932 45.784 299.9 42.564 293.317 Z M 196.675 349.462 L 207.818 338.319 L 218.955 349.456 C 215.248 349.513 211.49 349.55 207.638 349.55 C 203.908 349.55 200.269 349.515 196.675 349.462 Z M 360.436 311.33 C 359.718 312.1 358.975 312.857 358.214 313.602 L 347.938 303.326 L 365.509 285.755 L 372.829 293.075 C 369.589 299.753 365.529 305.866 360.436 311.33 Z M 398.182 191.859 L 17.093 191.859 C 13.244 191.859 10.112 188.727 10.112 184.877 C 10.112 181.028 13.244 177.896 17.093 177.896 L 398.182 177.896 C 402.031 177.896 405.163 181.028 405.163 184.877 C 405.163 188.727 402.031 191.859 398.182 191.859 Z" style="stroke-width: 2px; fill: rgb(244, 161, 17); stroke: rgba(239, 195, 83, 0);"/>
      <ellipse style="stroke: rgb(251, 192, 124); stroke-width: 0px; fill: rgb(255, 211, 161);" cx="70.774" cy="63.376" rx="17.404" ry="1.895" transform="matrix(0.731042, 0.682333, -0.682333, 0.731042, 43.189658, 135.037279)"/>
      <ellipse style="stroke: rgb(251, 192, 124); stroke-width: 0px; fill: rgb(255, 211, 161);" cx="70.774" cy="63.376" rx="17.404" ry="1.895" transform="matrix(0.731042, 0.682333, -0.682333, 0.731042, 91.637797, 126.532068)"/>
      <ellipse style="stroke: rgb(251, 192, 124); stroke-width: 0px; fill: rgb(255, 211, 161);" cx="70.774" cy="63.376" rx="17.404" ry="1.895" transform="matrix(0.731042, 0.682333, -0.682333, 0.731042, 70.087611, 206.411836)"/>
      <ellipse style="stroke: rgb(251, 192, 124); stroke-width: 0px; fill: rgb(255, 211, 161);" cx="70.774" cy="63.376" rx="17.404" ry="1.895" transform="matrix(0.731042, 0.682333, -0.682333, 0.731042, 186.718432, 173.081926)"/>
      <ellipse style="stroke: rgb(251, 192, 124); stroke-width: 0px; fill: rgb(255, 211, 161);" cx="70.774" cy="63.376" rx="29.866" ry="1.287" transform="matrix(0.731042, 0.682333, -0.682333, 0.731042, 256.605197, 181.955522)"/>
      <ellipse style="stroke: rgb(251, 192, 124); stroke-width: 0px; fill: rgb(255, 211, 161);" cx="70.774" cy="63.376" rx="17.404" ry="1.895" transform="matrix(0.731042, 0.682333, -0.682333, 0.731042, 242.182117, 119.10386)"/>
      <ellipse style="stroke: rgb(251, 192, 124); stroke-width: 0px; fill: rgb(255, 211, 161);" cx="70.774" cy="63.376" rx="17.404" ry="1.895" transform="matrix(0.731042, 0.682333, -0.682333, 0.731042, 257.533694, 242.163942)"/>
      <ellipse style="stroke: rgb(251, 192, 124); stroke-width: 0px; fill: rgb(255, 211, 161);" cx="70.774" cy="63.376" rx="17.404" ry="1.473" transform="matrix(0.731042, 0.682333, -0.682333, 0.731042, 165.712482, 252.749925)"/>
      <ellipse style="stroke: rgb(251, 192, 124); stroke-width: 0px; fill: rgb(255, 211, 161);" cx="70.774" cy="63.376" rx="10.23" ry="2.142" transform="matrix(0.731042, 0.682333, -0.682333, 0.731042, 324.015872, 148.225084)"/>
      <ellipse style="stroke: rgb(251, 192, 124); stroke-width: 0px; fill: rgb(255, 211, 161);" cx="70.774" cy="63.376" rx="17.404" ry="1.895" transform="matrix(0.731042, 0.682333, -0.682333, 0.731042, 351.871493, 128.292787)"/>
      <ellipse style="stroke: rgb(251, 192, 124); stroke-width: 0px; fill: rgb(255, 211, 161);" cx="70.774" cy="63.376" rx="1.972" ry="14.33" transform="matrix(0.731042, 0.682333, -0.682333, 0.731042, 290.33594, 141.084047)"/>
      <ellipse style="stroke: rgb(251, 192, 124); stroke-width: 0px; fill: rgb(255, 211, 161);" cx="70.774" cy="63.376" rx="1.972" ry="14.33" transform="matrix(0.731042, 0.682333, -0.682333, 0.731042, 172.077319, 208.304109)"/>
      <ellipse style="stroke: rgb(251, 192, 124); stroke-width: 0px; fill: rgb(255, 211, 161);" cx="70.774" cy="63.376" rx="1.972" ry="14.33" transform="matrix(0.731042, 0.682333, -0.682333, 0.731042, 155.727267, 122.371255)"/>
      <ellipse style="stroke: rgb(251, 192, 124); stroke-width: 0px; fill: rgb(255, 211, 161);" cx="70.774" cy="63.376" rx="1.972" ry="14.33" transform="matrix(0.731042, 0.682333, -0.682333, 0.731042, 310.482455, 231.878603)"/>
      <ellipse style="stroke: rgb(251, 192, 124); stroke-width: 0px; fill: rgb(255, 211, 161);" cx="70.774" cy="63.376" rx="1.972" ry="14.33" transform="matrix(0.731042, 0.682333, -0.682333, 0.731042, 353.068637, 183.588914)"/>
      <ellipse style="stroke: rgb(251, 192, 124); stroke-width: 0px; fill: rgb(255, 211, 161);" cx="70.774" cy="63.376" rx="1.972" ry="14.33" transform="matrix(0.000066, 1, -1, 0.000066, 292.6138, 102.868355)"/>
      <ellipse style="stroke: rgb(251, 192, 124); stroke-width: 0px; fill: rgb(255, 211, 161);" cx="70.774" cy="63.376" rx="1.972" ry="14.33" transform="matrix(0.000066, 1, -1, 0.000066, 135.577225, 99.826454)"/>
      <ellipse style="stroke: rgb(251, 192, 124); stroke-width: 0px; fill: rgb(255, 211, 161);" cx="70.774" cy="63.376" rx="1.972" ry="14.33" transform="matrix(0.000066, 1, -1, 0.000066, 112.002724, 130.245163)"/>
      <ellipse style="stroke: rgb(251, 192, 124); stroke-width: 0px; fill: rgb(255, 211, 161);" cx="70.774" cy="63.376" rx="1.972" ry="14.33" transform="matrix(0.000066, 1, -1, 0.000066, 454.973694, 128.343994)"/>
      <ellipse style="stroke: rgb(251, 192, 124); stroke-width: 0px; fill: rgb(255, 211, 161);" cx="70.774" cy="63.376" rx="1.001" ry="7.114" transform="matrix(0.731042, 0.682333, -0.682333, 0.731042, 255.850039, 159.616045)"/>
      <ellipse style="stroke: rgb(251, 192, 124); stroke-width: 0px; fill: rgb(255, 211, 161);" cx="70.774" cy="63.376" rx="1.001" ry="7.114" transform="matrix(0.731042, 0.682333, -0.682333, 0.731042, 248.184268, 157.754457)"/>
      <ellipse style="stroke: rgb(251, 192, 124); stroke-width: 0px; fill: rgb(255, 211, 161);" cx="70.774" cy="63.376" rx="1.001" ry="9.727" transform="matrix(0.731042, 0.682333, -0.682333, 0.731042, 253.79285, 156.84192)"/>
      <ellipse style="stroke: rgb(251, 192, 124); stroke-width: 0px; fill: rgb(255, 211, 161);" cx="70.774" cy="63.376" rx="1.001" ry="7.114" transform="matrix(0.731042, 0.682333, -0.682333, 0.731042, 197.122394, 154.32303)"/>
      <ellipse style="stroke: rgb(251, 192, 124); stroke-width: 0px; fill: rgb(255, 211, 161);" cx="70.774" cy="63.376" rx="1.001" ry="7.114" transform="matrix(0.731042, 0.682333, -0.682333, 0.731042, 189.456622, 152.461427)"/>
      <ellipse style="stroke: rgb(251, 192, 124); stroke-width: 0px; fill: rgb(255, 211, 161);" cx="70.774" cy="63.376" rx="1.001" ry="9.727" transform="matrix(0.731042, 0.682333, -0.682333, 0.731042, 195.065204, 151.548906)"/>
      <ellipse style="stroke: rgb(251, 192, 124); stroke-width: 0px; fill: rgb(255, 211, 161);" cx="70.774" cy="63.376" rx="1.001" ry="7.114" transform="matrix(0.731042, 0.682333, -0.682333, 0.731042, 123.271731, 236.995424)"/>
      <ellipse style="stroke: rgb(251, 192, 124); stroke-width: 0px; fill: rgb(255, 211, 161);" cx="70.774" cy="63.376" rx="1.001" ry="7.114" transform="matrix(0.731042, 0.682333, -0.682333, 0.731042, 115.60596, 235.133836)"/>
      <ellipse style="stroke: rgb(251, 192, 124); stroke-width: 0px; fill: rgb(255, 211, 161);" cx="70.774" cy="63.376" rx="1.001" ry="9.727" transform="matrix(0.731042, 0.682333, -0.682333, 0.731042, 121.214541, 234.2213)"/>
      <ellipse style="stroke: rgb(251, 192, 124); stroke-width: 0px; fill: rgb(255, 211, 161);" cx="70.774" cy="63.376" rx="1.001" ry="7.114" transform="matrix(0.662934, -0.748678, 0.748678, 0.662934, 33.384637, 289.006623)"/>
      <ellipse style="stroke: rgb(251, 192, 124); stroke-width: 0px; fill: rgb(255, 211, 161);" cx="70.774" cy="63.376" rx="1.001" ry="7.114" transform="matrix(0.662934, -0.748678, 0.748678, 0.662934, 31.724639, 296.718537)"/>
      <ellipse style="stroke: rgb(251, 192, 124); stroke-width: 0px; fill: rgb(255, 211, 161);" cx="70.774" cy="63.376" rx="1.001" ry="9.727" transform="matrix(0.662934, -0.748678, 0.748678, 0.662934, 30.665397, 291.135804)"/>
      <ellipse style="stroke: rgb(251, 192, 124); stroke-width: 0px; fill: rgb(255, 211, 161);" cx="70.774" cy="63.376" rx="1.001" ry="7.114" transform="matrix(0.662934, -0.748678, 0.748678, 0.662934, 216.624998, 316.480072)"/>
      <ellipse style="stroke: rgb(251, 192, 124); stroke-width: 0px; fill: rgb(255, 211, 161);" cx="70.774" cy="63.376" rx="1.001" ry="7.114" transform="matrix(0.662934, -0.748678, 0.748678, 0.662934, 214.965009, 324.192017)"/>
      <ellipse style="stroke: rgb(251, 192, 124); stroke-width: 0px; fill: rgb(255, 211, 161);" cx="70.774" cy="63.376" rx="1.001" ry="9.727" transform="matrix(0.662934, -0.748678, 0.748678, 0.662934, 213.905759, 318.609284)"/>
      <ellipse style="stroke: rgb(251, 192, 124); stroke-width: 0px; fill: rgb(255, 211, 161);" cx="70.774" cy="63.376" rx="1.001" ry="7.114" transform="matrix(0.662934, -0.748678, 0.748678, 0.662934, 243.090253, 236.076111)"/>
      <ellipse style="stroke: rgb(251, 192, 124); stroke-width: 0px; fill: rgb(255, 211, 161);" cx="70.774" cy="63.376" rx="1.001" ry="7.114" transform="matrix(0.662934, -0.748678, 0.748678, 0.662934, 241.43025, 243.78804)"/>
      <ellipse style="stroke: rgb(251, 192, 124); stroke-width: 0px; fill: rgb(255, 211, 161);" cx="70.774" cy="63.376" rx="1.001" ry="9.727" transform="matrix(0.662934, -0.748678, 0.748678, 0.662934, 240.371015, 238.205307)"/>
      <ellipse style="stroke: rgb(251, 192, 124); stroke-width: 0px; fill: rgb(255, 211, 161);" cx="70.774" cy="63.376" rx="1.001" ry="7.114" transform="matrix(0.662934, -0.748678, 0.748678, 0.662934, 13.92276, 346.284943)"/>
      <ellipse style="stroke: rgb(251, 192, 124); stroke-width: 0px; fill: rgb(255, 211, 161);" cx="70.774" cy="63.376" rx="1.001" ry="7.114" transform="matrix(0.662934, -0.748678, 0.748678, 0.662934, 12.26276, 353.996887)"/>
      <ellipse style="stroke: rgb(251, 192, 124); stroke-width: 0px; fill: rgb(255, 211, 161);" cx="70.774" cy="63.376" rx="1.001" ry="9.727" transform="matrix(0.662934, -0.748678, 0.748678, 0.662934, 11.203518, 348.414154)"/>
    </g>
  </g>
</svg>