<?xml version="1.0" encoding="utf-8"?>
<svg viewBox="0 0.769 420.296 196.599" xmlns="http://www.w3.org/2000/svg">
  <path style="stroke: rgb(0, 0, 0); fill: rgb(119, 90, 0);" d="M 26.534 35.178 L 32.275 102.044 L 46.797 144.595 L 92.387 176.002 L 154.863 190.523 L 230.509 192.212 L 307.844 182.081 L 356.812 160.805 L 385.517 123.32 L 392.947 79.418 L 392.947 34.165 L 26.534 35.178 Z"/>
  <path style="stroke: rgb(0, 0, 0); fill: rgb(255, 209, 134);" d="M 14.714 7.148 L 6.272 19.981 L 18.091 32.476 L 404.766 33.489 L 416.924 18.292 L 406.455 6.473 L 14.714 7.148 Z"/>
  <path d="M 400.558 0.903 L 400.147 0.903 L 19.88 0.903 L 19.469 0.903 C 8.827 0.903 0.168 9.561 0.168 20.203 C 0.168 30.846 8.827 39.504 19.469 39.504 L 19.9 39.504 C 19.891 39.641 19.88 39.776 19.88 39.915 C 19.88 86.285 22.011 126.955 48.202 155.056 C 75.366 184.2 125.27 197.196 210.013 197.196 C 219.486 197.196 228.521 197.033 237.14 196.703 C 237.142 196.703 237.145 196.703 237.148 196.703 C 237.182 196.703 237.214 196.699 237.247 196.698 C 259.87 195.83 279.611 193.813 296.771 190.565 C 296.878 190.548 296.984 190.527 297.09 190.503 C 331.658 183.917 355.732 172.319 371.824 155.055 C 378.795 147.575 384.048 139.197 388.024 130.065 C 388.198 129.748 388.339 129.42 388.453 129.082 C 399.021 104.09 400.147 73.5 400.147 39.915 C 400.147 39.776 400.135 39.641 400.126 39.504 L 400.558 39.504 C 411.2 39.504 419.858 30.846 419.858 20.203 C 419.858 9.561 411.2 0.903 400.558 0.903 Z M 380.144 115.918 L 376.597 112.371 L 382.788 106.18 C 382.026 109.516 381.149 112.765 380.144 115.918 Z M 328.079 168.981 L 324.033 164.935 L 341.604 147.364 L 351.073 156.833 C 344.532 161.473 336.894 165.52 328.079 168.981 Z M 286.312 179.777 L 271.469 164.934 L 289.04 147.363 L 306.611 164.934 L 292.903 178.643 C 290.749 179.041 288.55 179.418 286.312 179.777 Z M 127.572 178.729 L 113.777 164.934 L 131.348 147.363 L 148.918 164.933 L 134.027 179.824 C 131.838 179.476 129.678 179.115 127.572 178.729 Z M 69.165 156.982 L 78.783 147.364 L 96.355 164.935 L 92.209 169.08 C 83.38 165.634 75.722 161.605 69.165 156.982 Z M 32.228 48.244 L 43.791 59.806 L 32.819 70.778 C 32.447 63.491 32.286 55.966 32.228 48.244 Z M 37.136 105.716 L 43.791 112.37 L 39.968 116.193 C 38.879 112.81 37.945 109.312 37.136 105.716 Z M 34.931 86.088 L 52.502 68.517 L 70.073 86.087 L 52.502 103.658 L 34.931 86.088 Z M 332.892 86.088 L 315.321 103.659 L 297.75 86.088 L 315.321 68.517 L 332.892 86.088 Z M 324.033 59.806 L 341.604 42.235 L 359.175 59.806 L 341.604 77.377 L 324.033 59.806 Z M 262.757 121.082 L 280.328 138.653 L 262.757 156.224 L 245.186 138.653 L 262.757 121.082 Z M 236.475 129.941 L 218.904 112.37 L 236.475 94.8 L 254.046 112.371 L 236.475 129.941 Z M 271.469 112.37 L 289.04 94.799 L 306.611 112.37 L 289.04 129.941 L 271.469 112.37 Z M 289.039 77.377 L 271.468 59.806 L 289.039 42.236 L 306.61 59.807 L 289.039 77.377 Z M 280.328 86.088 L 262.757 103.659 L 245.186 86.088 L 262.757 68.517 L 280.328 86.088 Z M 236.475 77.377 L 218.904 59.807 L 236.475 42.236 L 254.046 59.806 L 236.475 77.377 Z M 227.764 86.088 L 210.193 103.659 L 192.622 86.088 L 210.193 68.517 L 227.764 86.088 Z M 157.629 121.082 L 175.2 138.652 L 157.628 156.223 L 140.058 138.653 L 157.629 121.082 Z M 131.347 129.941 L 113.776 112.37 L 131.347 94.799 L 148.918 112.37 L 131.347 129.941 Z M 166.341 112.37 L 183.912 94.799 L 201.483 112.369 L 183.912 129.94 L 166.341 112.37 Z M 183.911 77.377 L 166.34 59.806 L 183.911 42.235 L 201.482 59.806 L 183.911 77.377 Z M 175.2 86.088 L 157.629 103.659 L 140.058 86.088 L 157.629 68.517 L 175.2 86.088 Z M 131.347 77.377 L 113.776 59.806 L 131.347 42.236 L 148.918 59.807 L 131.347 77.377 Z M 122.637 86.088 L 105.065 103.659 L 87.494 86.088 L 105.065 68.518 L 122.637 86.088 Z M 78.783 77.377 L 61.212 59.807 L 78.783 42.236 L 96.355 59.806 L 78.783 77.377 Z M 78.783 94.8 L 96.355 112.371 L 78.783 129.942 L 61.212 112.371 L 78.783 94.8 Z M 105.065 121.082 L 122.637 138.653 L 105.065 156.224 L 87.494 138.653 L 105.065 121.082 Z M 157.629 173.645 L 167.508 183.524 C 161.211 183.088 155.167 182.547 149.376 181.897 L 157.629 173.645 Z M 166.34 164.934 L 183.911 147.363 L 201.482 164.934 L 183.911 182.505 L 166.34 164.934 Z M 192.622 138.652 L 210.193 121.082 L 227.764 138.653 L 210.193 156.224 L 192.622 138.652 Z M 236.475 147.364 L 254.046 164.935 L 236.475 182.506 L 218.904 164.935 L 236.475 147.364 Z M 262.757 173.646 L 270.971 181.86 C 265.202 182.513 259.18 183.056 252.907 183.495 L 262.757 173.646 Z M 315.321 156.223 L 297.75 138.652 L 315.321 121.081 L 332.892 138.652 L 315.321 156.223 Z M 324.033 112.37 L 341.604 94.799 L 359.175 112.37 L 341.604 129.941 L 324.033 112.37 Z M 350.315 86.088 L 367.886 68.517 L 385.457 86.088 L 367.886 103.659 L 350.315 86.088 Z M 376.597 59.806 L 387.795 48.608 C 387.736 56.081 387.578 63.369 387.225 70.435 L 376.597 59.806 Z M 367.885 51.095 L 356.294 39.504 L 379.476 39.504 L 367.885 51.095 Z M 315.321 51.095 L 303.73 39.504 L 326.912 39.504 L 315.321 51.095 Z M 262.757 51.095 L 251.166 39.504 L 274.348 39.504 L 262.757 51.095 Z M 210.193 51.095 L 198.602 39.504 L 221.784 39.504 L 210.193 51.095 Z M 157.629 51.095 L 146.038 39.504 L 169.22 39.504 L 157.629 51.095 Z M 105.065 51.095 L 93.474 39.504 L 116.657 39.504 L 105.065 51.095 Z M 52.501 51.095 L 40.91 39.504 L 64.093 39.504 L 52.501 51.095 Z M 44.94 128.643 L 52.501 121.081 L 70.073 138.652 L 59.616 149.108 C 58.792 148.305 57.99 147.488 57.215 146.656 C 52.184 141.258 48.16 135.226 44.94 128.643 Z M 199.051 184.788 L 210.194 173.645 L 221.331 184.782 C 217.624 184.839 213.866 184.876 210.014 184.876 C 206.284 184.876 202.645 184.841 199.051 184.788 Z M 362.812 146.656 C 362.094 147.426 361.351 148.183 360.59 148.928 L 350.314 138.652 L 367.885 121.081 L 375.205 128.401 C 371.965 135.079 367.905 141.192 362.812 146.656 Z M 400.558 27.185 L 19.469 27.185 C 15.62 27.185 12.488 24.053 12.488 20.203 C 12.488 16.354 15.62 13.222 19.469 13.222 L 400.558 13.222 C 404.407 13.222 407.539 16.354 407.539 20.203 C 407.539 24.053 404.407 27.185 400.558 27.185 Z" style="stroke-width: 2px; fill: rgb(244, 161, 17); stroke: rgba(239, 195, 83, 0);"/>
  <g transform="matrix(0.821311, 0, 0, 0.821311, -0.462229, 2.68639)" style=""/>
  <g transform="matrix(0.821311, 0, 0, 0.821311, -0.462229, 2.68639)" style=""/>
  <g transform="matrix(0.821311, 0, 0, 0.821311, -0.462229, 2.68639)" style=""/>
  <g transform="matrix(0.821311, 0, 0, 0.821311, -0.462229, 2.68639)" style=""/>
  <g transform="matrix(0.821311, 0, 0, 0.821311, -0.462229, 2.68639)" style=""/>
  <g transform="matrix(0.821311, 0, 0, 0.821311, -0.462229, 2.68639)" style=""/>
  <g transform="matrix(0.821311, 0, 0, 0.821311, -0.462229, 2.68639)" style=""/>
  <g transform="matrix(0.821311, 0, 0, 0.821311, -0.462229, 2.68639)" style=""/>
  <g transform="matrix(0.821311, 0, 0, 0.821311, -0.462229, 2.68639)" style=""/>
  <g transform="matrix(0.821311, 0, 0, 0.821311, -0.462229, 2.68639)" style=""/>
  <g transform="matrix(0.821311, 0, 0, 0.821311, -0.462229, 2.68639)" style=""/>
  <g transform="matrix(0.821311, 0, 0, 0.821311, -0.462229, 2.68639)" style=""/>
  <g transform="matrix(0.821311, 0, 0, 0.821311, -0.462229, 2.68639)" style=""/>
  <g transform="matrix(0.821311, 0, 0, 0.821311, -0.462229, 2.68639)" style=""/>
  <g transform="matrix(0.821311, 0, 0, 0.821311, -0.462229, 2.68639)" style=""/>
  <ellipse style="stroke: rgb(251, 192, 124); stroke-width: 0px; fill: rgb(255, 211, 161);" cx="70.774" cy="63.376" rx="17.404" ry="1.895" transform="matrix(0.731042, 0.682333, -0.682333, 0.731042, 45.565425, -29.636401)"/>
  <ellipse style="stroke: rgb(251, 192, 124); stroke-width: 0px; fill: rgb(255, 211, 161);" cx="70.774" cy="63.376" rx="17.404" ry="1.895" transform="matrix(0.731042, 0.682333, -0.682333, 0.731042, 94.013568, -38.141615)"/>
  <ellipse style="stroke: rgb(251, 192, 124); stroke-width: 0px; fill: rgb(255, 211, 161);" cx="70.774" cy="63.376" rx="17.404" ry="1.895" transform="matrix(0.731042, 0.682333, -0.682333, 0.731042, 72.463382, 41.738153)"/>
  <ellipse style="stroke: rgb(251, 192, 124); stroke-width: 0px; fill: rgb(255, 211, 161);" cx="70.774" cy="63.376" rx="17.404" ry="1.895" transform="matrix(0.731042, 0.682333, -0.682333, 0.731042, 189.094186, 8.408242)"/>
  <ellipse style="stroke: rgb(251, 192, 124); stroke-width: 0px; fill: rgb(255, 211, 161);" cx="70.774" cy="63.376" rx="29.866" ry="1.287" transform="matrix(0.731042, 0.682333, -0.682333, 0.731042, 258.98096, 17.281831)"/>
  <ellipse style="stroke: rgb(251, 192, 124); stroke-width: 0px; fill: rgb(255, 211, 161);" cx="70.774" cy="63.376" rx="17.404" ry="1.895" transform="matrix(0.731042, 0.682333, -0.682333, 0.731042, 244.557884, -45.569821)"/>
  <ellipse style="stroke: rgb(251, 192, 124); stroke-width: 0px; fill: rgb(255, 211, 161);" cx="70.774" cy="63.376" rx="17.404" ry="1.895" transform="matrix(0.731042, 0.682333, -0.682333, 0.731042, 259.909443, 77.490259)"/>
  <ellipse style="stroke: rgb(251, 192, 124); stroke-width: 0px; fill: rgb(255, 211, 161);" cx="70.774" cy="63.376" rx="17.404" ry="1.473" transform="matrix(0.731042, 0.682333, -0.682333, 0.731042, 168.088244, 88.07625)"/>
  <ellipse style="stroke: rgb(251, 192, 124); stroke-width: 0px; fill: rgb(255, 211, 161);" cx="70.774" cy="63.376" rx="10.23" ry="2.142" transform="matrix(0.731042, 0.682333, -0.682333, 0.731042, 326.391626, -16.448595)"/>
  <ellipse style="stroke: rgb(251, 192, 124); stroke-width: 0px; fill: rgb(255, 211, 161);" cx="70.774" cy="63.376" rx="17.404" ry="1.895" transform="matrix(0.731042, 0.682333, -0.682333, 0.731042, 354.247251, -36.380895)"/>
  <ellipse style="stroke: rgb(251, 192, 124); stroke-width: 0px; fill: rgb(255, 211, 161);" cx="70.774" cy="63.376" rx="1.972" ry="14.33" transform="matrix(0.731042, 0.682333, -0.682333, 0.731042, 292.711703, -23.58964)"/>
  <ellipse style="stroke: rgb(251, 192, 124); stroke-width: 0px; fill: rgb(255, 211, 161);" cx="70.774" cy="63.376" rx="1.972" ry="14.33" transform="matrix(0.731042, 0.682333, -0.682333, 0.731042, 174.453081, 43.630428)"/>
  <ellipse style="stroke: rgb(251, 192, 124); stroke-width: 0px; fill: rgb(255, 211, 161);" cx="70.774" cy="63.376" rx="1.972" ry="14.33" transform="matrix(0.731042, 0.682333, -0.682333, 0.731042, 158.103024, -42.302428)"/>
  <ellipse style="stroke: rgb(251, 192, 124); stroke-width: 0px; fill: rgb(255, 211, 161);" cx="70.774" cy="63.376" rx="1.972" ry="14.33" transform="matrix(0.731042, 0.682333, -0.682333, 0.731042, 312.858212, 67.204929)"/>
  <ellipse style="stroke: rgb(251, 192, 124); stroke-width: 0px; fill: rgb(255, 211, 161);" cx="70.774" cy="63.376" rx="1.972" ry="14.33" transform="matrix(0.731042, 0.682333, -0.682333, 0.731042, 355.444406, 18.915226)"/>
  <ellipse style="stroke: rgb(251, 192, 124); stroke-width: 0px; fill: rgb(255, 211, 161);" cx="70.774" cy="63.376" rx="1.972" ry="14.33" transform="matrix(0.000066, 1, -1, 0.000066, 294.989563, -61.805298)"/>
  <ellipse style="stroke: rgb(251, 192, 124); stroke-width: 0px; fill: rgb(255, 211, 161);" cx="70.774" cy="63.376" rx="1.972" ry="14.33" transform="matrix(0.000066, 1, -1, 0.000066, 137.952992, -64.847195)"/>
  <ellipse style="stroke: rgb(251, 192, 124); stroke-width: 0px; fill: rgb(255, 211, 161);" cx="70.774" cy="63.376" rx="1.972" ry="14.33" transform="matrix(0.000066, 1, -1, 0.000066, 114.378492, -34.428485)"/>
  <ellipse style="stroke: rgb(251, 192, 124); stroke-width: 0px; fill: rgb(255, 211, 161);" cx="70.774" cy="63.376" rx="1.972" ry="14.33" transform="matrix(0.000066, 1, -1, 0.000066, 457.349449, -36.329655)"/>
  <ellipse style="stroke: rgb(251, 192, 124); stroke-width: 0px; fill: rgb(255, 211, 161);" cx="70.774" cy="63.376" rx="1.001" ry="7.114" transform="matrix(0.731042, 0.682333, -0.682333, 0.731042, 258.225794, -5.057633)"/>
  <ellipse style="stroke: rgb(251, 192, 124); stroke-width: 0px; fill: rgb(255, 211, 161);" cx="70.774" cy="63.376" rx="1.001" ry="7.114" transform="matrix(0.731042, 0.682333, -0.682333, 0.731042, 250.560023, -6.919232)"/>
  <ellipse style="stroke: rgb(251, 192, 124); stroke-width: 0px; fill: rgb(255, 211, 161);" cx="70.774" cy="63.376" rx="1.001" ry="9.727" transform="matrix(0.731042, 0.682333, -0.682333, 0.731042, 256.168604, -7.831761)"/>
  <ellipse style="stroke: rgb(251, 192, 124); stroke-width: 0px; fill: rgb(255, 211, 161);" cx="70.774" cy="63.376" rx="1.001" ry="7.114" transform="matrix(0.731042, 0.682333, -0.682333, 0.731042, 199.498157, -10.35065)"/>
  <ellipse style="stroke: rgb(251, 192, 124); stroke-width: 0px; fill: rgb(255, 211, 161);" cx="70.774" cy="63.376" rx="1.001" ry="7.114" transform="matrix(0.731042, 0.682333, -0.682333, 0.731042, 191.832385, -12.212249)"/>
  <ellipse style="stroke: rgb(251, 192, 124); stroke-width: 0px; fill: rgb(255, 211, 161);" cx="70.774" cy="63.376" rx="1.001" ry="9.727" transform="matrix(0.731042, 0.682333, -0.682333, 0.731042, 197.440967, -13.124778)"/>
  <ellipse style="stroke: rgb(251, 192, 124); stroke-width: 0px; fill: rgb(255, 211, 161);" cx="70.774" cy="63.376" rx="1.001" ry="7.114" transform="matrix(0.731042, 0.682333, -0.682333, 0.731042, 125.647502, 72.321748)"/>
  <ellipse style="stroke: rgb(251, 192, 124); stroke-width: 0px; fill: rgb(255, 211, 161);" cx="70.774" cy="63.376" rx="1.001" ry="7.114" transform="matrix(0.731042, 0.682333, -0.682333, 0.731042, 117.98173, 70.460153)"/>
  <ellipse style="stroke: rgb(251, 192, 124); stroke-width: 0px; fill: rgb(255, 211, 161);" cx="70.774" cy="63.376" rx="1.001" ry="9.727" transform="matrix(0.731042, 0.682333, -0.682333, 0.731042, 123.590312, 69.547624)"/>
  <ellipse style="stroke: rgb(251, 192, 124); stroke-width: 0px; fill: rgb(255, 211, 161);" cx="70.774" cy="63.376" rx="1.001" ry="7.114" transform="matrix(0.662934, -0.748678, 0.748678, 0.662934, 35.760412, 124.33297)"/>
  <ellipse style="stroke: rgb(251, 192, 124); stroke-width: 0px; fill: rgb(255, 211, 161);" cx="70.774" cy="63.376" rx="1.001" ry="7.114" transform="matrix(0.662934, -0.748678, 0.748678, 0.662934, 34.100412, 132.044892)"/>
  <ellipse style="stroke: rgb(251, 192, 124); stroke-width: 0px; fill: rgb(255, 211, 161);" cx="70.774" cy="63.376" rx="1.001" ry="9.727" transform="matrix(0.662934, -0.748678, 0.748678, 0.662934, 33.04117, 126.462166)"/>
  <ellipse style="stroke: rgb(251, 192, 124); stroke-width: 0px; fill: rgb(255, 211, 161);" cx="70.774" cy="63.376" rx="1.001" ry="7.114" transform="matrix(0.662934, -0.748678, 0.748678, 0.662934, 219.000761, 151.806427)"/>
  <ellipse style="stroke: rgb(251, 192, 124); stroke-width: 0px; fill: rgb(255, 211, 161);" cx="70.774" cy="63.376" rx="1.001" ry="7.114" transform="matrix(0.662934, -0.748678, 0.748678, 0.662934, 217.340772, 159.518357)"/>
  <ellipse style="stroke: rgb(251, 192, 124); stroke-width: 0px; fill: rgb(255, 211, 161);" cx="70.774" cy="63.376" rx="1.001" ry="9.727" transform="matrix(0.662934, -0.748678, 0.748678, 0.662934, 216.281522, 153.935623)"/>
  <ellipse style="stroke: rgb(251, 192, 124); stroke-width: 0px; fill: rgb(255, 211, 161);" cx="70.774" cy="63.376" rx="1.001" ry="7.114" transform="matrix(0.662934, -0.748678, 0.748678, 0.662934, 245.466016, 71.402466)"/>
  <ellipse style="stroke: rgb(251, 192, 124); stroke-width: 0px; fill: rgb(255, 211, 161);" cx="70.774" cy="63.376" rx="1.001" ry="7.114" transform="matrix(0.662934, -0.748678, 0.748678, 0.662934, 243.806013, 79.114395)"/>
  <ellipse style="stroke: rgb(251, 192, 124); stroke-width: 0px; fill: rgb(255, 211, 161);" cx="70.774" cy="63.376" rx="1.001" ry="9.727" transform="matrix(0.662934, -0.748678, 0.748678, 0.662934, 242.746778, 73.531662)"/>
  <ellipse style="stroke: rgb(251, 192, 124); stroke-width: 0px; fill: rgb(255, 211, 161);" cx="70.774" cy="63.376" rx="1.001" ry="7.114" transform="matrix(0.662934, -0.748678, 0.748678, 0.662934, 16.298532, 181.611298)"/>
  <ellipse style="stroke: rgb(251, 192, 124); stroke-width: 0px; fill: rgb(255, 211, 161);" cx="70.774" cy="63.376" rx="1.001" ry="7.114" transform="matrix(0.662934, -0.748678, 0.748678, 0.662934, 14.638532, 189.323227)"/>
  <ellipse style="stroke: rgb(251, 192, 124); stroke-width: 0px; fill: rgb(255, 211, 161);" cx="70.774" cy="63.376" rx="1.001" ry="9.727" transform="matrix(0.662934, -0.748678, 0.748678, 0.662934, 13.57929, 183.740494)"/>
</svg>