<?xml version="1.0" encoding="utf-8"?>
<svg viewBox="-2571.109 268.657 6009.985 279.831" xmlns="http://www.w3.org/2000/svg" xmlns:bx="https://boxy-svg.com">
  <defs>
    <bx:grid x="0" y="0" width="82.939" height="82.939"/>
  </defs>
  <g transform="matrix(0.976564, 0, 0, 0.976564, -682.63739, 71.468689)" style="">
    <g>
      <path d="M200.456,256.458c-4.728-1.574-9.798,0.978-11.364,5.68l-8.982,26.947c-1.57,4.706,0.974,9.794,5.68,11.364 c0.943,0.316,1.904,0.465,2.842,0.465c3.763,0,7.268-2.381,8.522-6.145l8.982-26.947 C207.706,263.116,205.162,258.028,200.456,256.458z" style="fill: rgb(0, 87, 183); fill-opacity: 0.34;"/>
    </g>
  </g>
  <path d="M -513.194 409.637 C -517.803 408.091 -522.759 410.592 -524.292 415.184 L -533.063 441.499 C -534.597 446.095 -532.112 451.064 -527.517 452.597 C -526.596 452.905 -525.657 453.051 -524.741 453.051 C -521.066 453.051 -517.644 450.726 -516.419 447.05 L -507.647 420.734 C -506.114 416.139 -508.599 411.17 -513.194 409.637 Z" style="fill: rgb(255, 215, 0); fill-opacity: 0.34;"/>
  <g transform="matrix(0.976564, 0, 0, 0.976564, -682.63739, 71.468689)" style="">
    <g>
      <path d="M146.562,427.125c-4.728-1.574-9.798,0.978-11.364,5.68l-8.982,26.947c-1.57,4.706,0.974,9.794,5.68,11.364 c0.943,0.316,1.904,0.465,2.842,0.465c3.763,0,7.268-2.381,8.522-6.145l8.982-26.947 C153.812,433.783,151.268,428.695,146.562,427.125z" style="fill: rgb(0, 87, 183); fill-opacity: 0.34;"/>
    </g>
  </g>
  <g transform="matrix(0.976564, 0, 0, 0.976564, -682.63739, 71.468689)" style="">
    <g>
      <path d="M290.281,229.511c-4.715-1.588-9.794,0.978-11.364,5.68l-8.982,26.947c-1.57,4.706,0.974,9.794,5.68,11.364 c0.943,0.316,1.904,0.465,2.842,0.465c3.763,0,7.268-2.381,8.522-6.145l8.982-26.947 C297.531,236.169,294.987,231.081,290.281,229.511z" style="fill: rgb(255, 215, 0); fill-opacity: 0.34;"/>
    </g>
  </g>
  <g transform="matrix(0.976564, 0, 0, 0.976564, -682.63739, 71.468689)" style="">
    <g>
      <path d="M263.333,319.336c-4.724-1.574-9.798,0.978-11.364,5.68l-8.982,26.947c-1.57,4.706,0.974,9.794,5.68,11.364 c0.943,0.316,1.904,0.465,2.842,0.465c3.763,0,7.268-2.382,8.522-6.145l8.982-26.947 C270.583,325.994,268.04,320.906,263.333,319.336z" style="fill: rgb(255, 215, 0); fill-opacity: 0.34;"/>
    </g>
  </g>
  <g transform="matrix(0.976564, 0, 0, 0.976564, -682.63739, 71.468689)" style="">
    <g>
      <path d="M236.386,400.178c-4.715-1.583-9.794,0.978-11.364,5.68l-8.982,26.947c-1.57,4.706,0.974,9.794,5.68,11.364 c0.943,0.316,1.904,0.465,2.842,0.465c3.763,0,7.268-2.381,8.522-6.145l8.982-26.947 C243.636,406.836,241.092,401.748,236.386,400.178z" style="fill: rgb(0, 87, 183); fill-opacity: 0.34;"/>
    </g>
  </g>
  <g transform="matrix(0.976564, 0, 0, 0.976564, -682.63739, 71.468689)" style="">
    <g>
      <path d="M353.158,310.353c-4.733-1.574-9.794,0.978-11.364,5.68l-8.982,26.947c-1.57,4.706,0.974,9.794,5.68,11.364 c0.943,0.316,1.904,0.465,2.842,0.465c3.763,0,7.268-2.381,8.522-6.145l8.982-26.947 C360.408,317.011,357.864,311.923,353.158,310.353z" style="fill: rgb(0, 87, 183); fill-opacity: 0.34;"/>
    </g>
  </g>
  <g transform="matrix(0.976564, 0, 0, 0.976564, -682.63739, 71.468689)" style="">
    <g>
      <path d="M326.211,400.178c-4.724-1.583-9.798,0.978-11.364,5.68l-8.982,26.947c-1.57,4.706,0.974,9.794,5.68,11.364 c0.943,0.316,1.904,0.465,2.842,0.465c3.763,0,7.268-2.381,8.522-6.145l8.982-26.947 C333.461,406.836,330.917,401.748,326.211,400.178z" style="fill: rgb(255, 215, 0); fill-opacity: 0.34;"/>
    </g>
  </g>
  <g transform="matrix(0.976564, 0, 0, 0.976564, -656.315186, -14.737726)" style="">
    <g>
      <path d="M353.158,310.353c-4.733-1.574-9.794,0.978-11.364,5.68l-8.982,26.947c-1.57,4.706,0.974,9.794,5.68,11.364 c0.943,0.316,1.904,0.465,2.842,0.465c3.763,0,7.268-2.381,8.522-6.145l8.982-26.947 C360.408,317.011,357.864,311.923,353.158,310.353z" style="fill: rgb(0, 87, 183); fill-opacity: 0.34;"/>
    </g>
  </g>
  <g transform="matrix(0.976564, 0, 0, 0.976564, -430.898437, 71.739624)" style="">
    <g>
      <path d="M200.456,256.458c-4.728-1.574-9.798,0.978-11.364,5.68l-8.982,26.947c-1.57,4.706,0.974,9.794,5.68,11.364 c0.943,0.316,1.904,0.465,2.842,0.465c3.763,0,7.268-2.381,8.522-6.145l8.982-26.947 C207.706,263.116,205.162,258.028,200.456,256.458z" style="fill: rgb(0, 87, 183); fill-opacity: 0.34;"/>
    </g>
  </g>
  <path d="M -261.455 409.908 C -266.064 408.362 -271.02 410.863 -272.553 415.455 L -281.324 441.77 C -282.858 446.366 -280.373 451.335 -275.778 452.868 C -274.857 453.176 -273.918 453.322 -273.002 453.322 C -269.327 453.322 -265.905 450.997 -264.68 447.321 L -255.908 421.005 C -254.375 416.41 -256.86 411.441 -261.455 409.908 Z" style="fill: rgb(255, 215, 0); fill-opacity: 0.34;"/>
  <g transform="matrix(0.976564, 0, 0, 0.976564, -430.898437, 71.739624)" style="">
    <g>
      <path d="M146.562,427.125c-4.728-1.574-9.798,0.978-11.364,5.68l-8.982,26.947c-1.57,4.706,0.974,9.794,5.68,11.364 c0.943,0.316,1.904,0.465,2.842,0.465c3.763,0,7.268-2.381,8.522-6.145l8.982-26.947 C153.812,433.783,151.268,428.695,146.562,427.125z" style="fill: rgb(0, 87, 183); fill-opacity: 0.34;"/>
    </g>
  </g>
  <g transform="matrix(0.976564, 0, 0, 0.976564, -430.898437, 71.739624)" style="">
    <g>
      <path d="M290.281,229.511c-4.715-1.588-9.794,0.978-11.364,5.68l-8.982,26.947c-1.57,4.706,0.974,9.794,5.68,11.364 c0.943,0.316,1.904,0.465,2.842,0.465c3.763,0,7.268-2.381,8.522-6.145l8.982-26.947 C297.531,236.169,294.987,231.081,290.281,229.511z" style="fill: rgb(255, 215, 0); fill-opacity: 0.34;"/>
    </g>
  </g>
  <g transform="matrix(0.976564, 0, 0, 0.976564, -430.898437, 71.739624)" style="">
    <g>
      <path d="M263.333,319.336c-4.724-1.574-9.798,0.978-11.364,5.68l-8.982,26.947c-1.57,4.706,0.974,9.794,5.68,11.364 c0.943,0.316,1.904,0.465,2.842,0.465c3.763,0,7.268-2.382,8.522-6.145l8.982-26.947 C270.583,325.994,268.04,320.906,263.333,319.336z" style="fill: rgb(255, 215, 0); fill-opacity: 0.34;"/>
    </g>
  </g>
  <g transform="matrix(0.976564, 0, 0, 0.976564, -430.898437, 71.739624)" style="">
    <g>
      <path d="M236.386,400.178c-4.715-1.583-9.794,0.978-11.364,5.68l-8.982,26.947c-1.57,4.706,0.974,9.794,5.68,11.364 c0.943,0.316,1.904,0.465,2.842,0.465c3.763,0,7.268-2.381,8.522-6.145l8.982-26.947 C243.636,406.836,241.092,401.748,236.386,400.178z" style="fill: rgb(0, 87, 183); fill-opacity: 0.34;"/>
    </g>
  </g>
  <g transform="matrix(0.976564, 0, 0, 0.976564, -430.898437, 71.739624)" style="">
    <g>
      <path d="M353.158,310.353c-4.733-1.574-9.794,0.978-11.364,5.68l-8.982,26.947c-1.57,4.706,0.974,9.794,5.68,11.364 c0.943,0.316,1.904,0.465,2.842,0.465c3.763,0,7.268-2.381,8.522-6.145l8.982-26.947 C360.408,317.011,357.864,311.923,353.158,310.353z" style="fill: rgb(0, 87, 183); fill-opacity: 0.34;"/>
    </g>
  </g>
  <g transform="matrix(0.976564, 0, 0, 0.976564, -430.898437, 71.739624)" style="">
    <g>
      <path d="M326.211,400.178c-4.724-1.583-9.798,0.978-11.364,5.68l-8.982,26.947c-1.57,4.706,0.974,9.794,5.68,11.364 c0.943,0.316,1.904,0.465,2.842,0.465c3.763,0,7.268-2.381,8.522-6.145l8.982-26.947 C333.461,406.836,330.917,401.748,326.211,400.178z" style="fill: rgb(255, 215, 0); fill-opacity: 0.34;"/>
    </g>
  </g>
  <g transform="matrix(0.976564, 0, 0, 0.976564, -404.576233, -14.466796)" style="">
    <g>
      <path d="M353.158,310.353c-4.733-1.574-9.794,0.978-11.364,5.68l-8.982,26.947c-1.57,4.706,0.974,9.794,5.68,11.364 c0.943,0.316,1.904,0.465,2.842,0.465c3.763,0,7.268-2.381,8.522-6.145l8.982-26.947 C360.408,317.011,357.864,311.923,353.158,310.353z" style="fill: rgb(0, 87, 183); fill-opacity: 0.34;"/>
    </g>
  </g>
  <g transform="matrix(0.976564, 0, 0, 0.976564, -182.714386, 71.764259)" style="">
    <g>
      <path d="M200.456,256.458c-4.728-1.574-9.798,0.978-11.364,5.68l-8.982,26.947c-1.57,4.706,0.974,9.794,5.68,11.364 c0.943,0.316,1.904,0.465,2.842,0.465c3.763,0,7.268-2.381,8.522-6.145l8.982-26.947 C207.706,263.116,205.162,258.028,200.456,256.458z" style="fill: rgb(0, 87, 183); fill-opacity: 0.34;"/>
    </g>
  </g>
  <path d="M -13.271 409.933 C -17.88 408.387 -22.836 410.888 -24.369 415.48 L -33.14 441.795 C -34.674 446.391 -32.189 451.36 -27.594 452.893 C -26.673 453.201 -25.734 453.347 -24.818 453.347 C -21.143 453.347 -17.721 451.022 -16.496 447.346 L -7.724 421.03 C -6.191 416.435 -8.676 411.466 -13.271 409.933 Z" style="fill: rgb(255, 215, 0); fill-opacity: 0.34;"/>
  <g transform="matrix(0.976564, 0, 0, 0.976564, -182.714386, 71.764259)" style="">
    <g>
      <path d="M146.562,427.125c-4.728-1.574-9.798,0.978-11.364,5.68l-8.982,26.947c-1.57,4.706,0.974,9.794,5.68,11.364 c0.943,0.316,1.904,0.465,2.842,0.465c3.763,0,7.268-2.381,8.522-6.145l8.982-26.947 C153.812,433.783,151.268,428.695,146.562,427.125z" style="fill: rgb(0, 87, 183); fill-opacity: 0.34;"/>
    </g>
  </g>
  <g transform="matrix(0.976564, 0, 0, 0.976564, -182.714386, 71.764259)" style="">
    <g>
      <path d="M290.281,229.511c-4.715-1.588-9.794,0.978-11.364,5.68l-8.982,26.947c-1.57,4.706,0.974,9.794,5.68,11.364 c0.943,0.316,1.904,0.465,2.842,0.465c3.763,0,7.268-2.381,8.522-6.145l8.982-26.947 C297.531,236.169,294.987,231.081,290.281,229.511z" style="fill: rgb(255, 215, 0); fill-opacity: 0.34;"/>
    </g>
  </g>
  <g transform="matrix(0.976564, 0, 0, 0.976564, -182.714386, 71.764259)" style="">
    <g>
      <path d="M263.333,319.336c-4.724-1.574-9.798,0.978-11.364,5.68l-8.982,26.947c-1.57,4.706,0.974,9.794,5.68,11.364 c0.943,0.316,1.904,0.465,2.842,0.465c3.763,0,7.268-2.382,8.522-6.145l8.982-26.947 C270.583,325.994,268.04,320.906,263.333,319.336z" style="fill: rgb(255, 215, 0); fill-opacity: 0.34;"/>
    </g>
  </g>
  <g transform="matrix(0.976564, 0, 0, 0.976564, -182.714386, 71.764259)" style="">
    <g>
      <path d="M236.386,400.178c-4.715-1.583-9.794,0.978-11.364,5.68l-8.982,26.947c-1.57,4.706,0.974,9.794,5.68,11.364 c0.943,0.316,1.904,0.465,2.842,0.465c3.763,0,7.268-2.381,8.522-6.145l8.982-26.947 C243.636,406.836,241.092,401.748,236.386,400.178z" style="fill: rgb(0, 87, 183); fill-opacity: 0.34;"/>
    </g>
  </g>
  <g transform="matrix(0.976564, 0, 0, 0.976564, -182.714386, 71.764259)" style="">
    <g>
      <path d="M353.158,310.353c-4.733-1.574-9.794,0.978-11.364,5.68l-8.982,26.947c-1.57,4.706,0.974,9.794,5.68,11.364 c0.943,0.316,1.904,0.465,2.842,0.465c3.763,0,7.268-2.381,8.522-6.145l8.982-26.947 C360.408,317.011,357.864,311.923,353.158,310.353z" style="fill: rgb(0, 87, 183); fill-opacity: 0.34;"/>
    </g>
  </g>
  <g transform="matrix(0.976564, 0, 0, 0.976564, -182.714386, 71.764259)" style="">
    <g>
      <path d="M326.211,400.178c-4.724-1.583-9.798,0.978-11.364,5.68l-8.982,26.947c-1.57,4.706,0.974,9.794,5.68,11.364 c0.943,0.316,1.904,0.465,2.842,0.465c3.763,0,7.268-2.381,8.522-6.145l8.982-26.947 C333.461,406.836,330.917,401.748,326.211,400.178z" style="fill: rgb(255, 215, 0); fill-opacity: 0.34;"/>
    </g>
  </g>
  <g transform="matrix(0.976564, 0, 0, 0.976564, -156.392181, -14.442161)" style="">
    <g>
      <path d="M353.158,310.353c-4.733-1.574-9.794,0.978-11.364,5.68l-8.982,26.947c-1.57,4.706,0.974,9.794,5.68,11.364 c0.943,0.316,1.904,0.465,2.842,0.465c3.763,0,7.268-2.381,8.522-6.145l8.982-26.947 C360.408,317.011,357.864,311.923,353.158,310.353z" style="fill: rgb(0, 87, 183); fill-opacity: 0.34;"/>
    </g>
  </g>
  <g transform="matrix(0.976564, 0, 0, 0.976564, 63.803844, 71.764259)" style="">
    <g>
      <path d="M200.456,256.458c-4.728-1.574-9.798,0.978-11.364,5.68l-8.982,26.947c-1.57,4.706,0.974,9.794,5.68,11.364 c0.943,0.316,1.904,0.465,2.842,0.465c3.763,0,7.268-2.381,8.522-6.145l8.982-26.947 C207.706,263.116,205.162,258.028,200.456,256.458z" style="fill: rgb(0, 87, 183); fill-opacity: 0.34;"/>
    </g>
  </g>
  <path d="M 233.247 409.933 C 228.638 408.387 223.682 410.888 222.149 415.48 L 213.378 441.795 C 211.844 446.391 214.329 451.36 218.924 452.893 C 219.845 453.201 220.784 453.347 221.7 453.347 C 225.375 453.347 228.797 451.022 230.022 447.346 L 238.794 421.03 C 240.327 416.435 237.842 411.466 233.247 409.933 Z" style="fill: rgb(255, 215, 0); fill-opacity: 0.34;"/>
  <g transform="matrix(0.976564, 0, 0, 0.976564, 63.803844, 71.764259)" style="">
    <g>
      <path d="M146.562,427.125c-4.728-1.574-9.798,0.978-11.364,5.68l-8.982,26.947c-1.57,4.706,0.974,9.794,5.68,11.364 c0.943,0.316,1.904,0.465,2.842,0.465c3.763,0,7.268-2.381,8.522-6.145l8.982-26.947 C153.812,433.783,151.268,428.695,146.562,427.125z" style="fill: rgb(0, 87, 183); fill-opacity: 0.34;"/>
    </g>
  </g>
  <g transform="matrix(0.976564, 0, 0, 0.976564, 63.803844, 71.764259)" style="">
    <g>
      <path d="M290.281,229.511c-4.715-1.588-9.794,0.978-11.364,5.68l-8.982,26.947c-1.57,4.706,0.974,9.794,5.68,11.364 c0.943,0.316,1.904,0.465,2.842,0.465c3.763,0,7.268-2.381,8.522-6.145l8.982-26.947 C297.531,236.169,294.987,231.081,290.281,229.511z" style="fill: rgb(255, 215, 0); fill-opacity: 0.34;"/>
    </g>
  </g>
  <g transform="matrix(0.976564, 0, 0, 0.976564, 63.803844, 71.764259)" style="">
    <g>
      <path d="M263.333,319.336c-4.724-1.574-9.798,0.978-11.364,5.68l-8.982,26.947c-1.57,4.706,0.974,9.794,5.68,11.364 c0.943,0.316,1.904,0.465,2.842,0.465c3.763,0,7.268-2.382,8.522-6.145l8.982-26.947 C270.583,325.994,268.04,320.906,263.333,319.336z" style="fill: rgb(255, 215, 0); fill-opacity: 0.34;"/>
    </g>
  </g>
  <g transform="matrix(0.976564, 0, 0, 0.976564, 63.803844, 71.764259)" style="">
    <g>
      <path d="M236.386,400.178c-4.715-1.583-9.794,0.978-11.364,5.68l-8.982,26.947c-1.57,4.706,0.974,9.794,5.68,11.364 c0.943,0.316,1.904,0.465,2.842,0.465c3.763,0,7.268-2.381,8.522-6.145l8.982-26.947 C243.636,406.836,241.092,401.748,236.386,400.178z" style="fill: rgb(0, 87, 183); fill-opacity: 0.34;"/>
    </g>
  </g>
  <g transform="matrix(0.976564, 0, 0, 0.976564, 63.803844, 71.764259)" style="">
    <g>
      <path d="M353.158,310.353c-4.733-1.574-9.794,0.978-11.364,5.68l-8.982,26.947c-1.57,4.706,0.974,9.794,5.68,11.364 c0.943,0.316,1.904,0.465,2.842,0.465c3.763,0,7.268-2.381,8.522-6.145l8.982-26.947 C360.408,317.011,357.864,311.923,353.158,310.353z" style="fill: rgb(0, 87, 183); fill-opacity: 0.34;"/>
    </g>
  </g>
  <g transform="matrix(0.976564, 0, 0, 0.976564, 63.803844, 71.764259)" style="">
    <g>
      <path d="M326.211,400.178c-4.724-1.583-9.798,0.978-11.364,5.68l-8.982,26.947c-1.57,4.706,0.974,9.794,5.68,11.364 c0.943,0.316,1.904,0.465,2.842,0.465c3.763,0,7.268-2.381,8.522-6.145l8.982-26.947 C333.461,406.836,330.917,401.748,326.211,400.178z" style="fill: rgb(255, 215, 0); fill-opacity: 0.34;"/>
    </g>
  </g>
  <g transform="matrix(0.976564, 0, 0, 0.976564, 90.126045, -14.442161)" style="">
    <g>
      <path d="M353.158,310.353c-4.733-1.574-9.794,0.978-11.364,5.68l-8.982,26.947c-1.57,4.706,0.974,9.794,5.68,11.364 c0.943,0.316,1.904,0.465,2.842,0.465c3.763,0,7.268-2.381,8.522-6.145l8.982-26.947 C360.408,317.011,357.864,311.923,353.158,310.353z" style="fill: rgb(0, 87, 183); fill-opacity: 0.34;"/>
    </g>
  </g>
  <g transform="matrix(0.976564, 0, 0, 0.976564, -1676.925049, 73.282127)" style="">
    <g>
      <path d="M200.456,256.458c-4.728-1.574-9.798,0.978-11.364,5.68l-8.982,26.947c-1.57,4.706,0.974,9.794,5.68,11.364 c0.943,0.316,1.904,0.465,2.842,0.465c3.763,0,7.268-2.381,8.522-6.145l8.982-26.947 C207.706,263.116,205.162,258.028,200.456,256.458z" style="fill: rgb(0, 87, 183); fill-opacity: 0.34;"/>
    </g>
  </g>
  <path d="M -1507.482 411.45 C -1512.091 409.904 -1517.047 412.405 -1518.58 416.997 L -1527.351 443.312 C -1528.885 447.908 -1526.4 452.877 -1521.805 454.41 C -1520.884 454.718 -1519.945 454.864 -1519.029 454.864 C -1515.354 454.864 -1511.932 452.539 -1510.707 448.863 L -1501.935 422.547 C -1500.402 417.952 -1502.887 412.983 -1507.482 411.45 Z" style="fill: rgb(255, 215, 0); fill-opacity: 0.34;"/>
  <g transform="matrix(0.976564, 0, 0, 0.976564, -1676.925049, 73.282127)" style="">
    <g>
      <path d="M146.562,427.125c-4.728-1.574-9.798,0.978-11.364,5.68l-8.982,26.947c-1.57,4.706,0.974,9.794,5.68,11.364 c0.943,0.316,1.904,0.465,2.842,0.465c3.763,0,7.268-2.381,8.522-6.145l8.982-26.947 C153.812,433.783,151.268,428.695,146.562,427.125z" style="fill: rgb(0, 87, 183); fill-opacity: 0.34;"/>
    </g>
  </g>
  <g transform="matrix(0.976564, 0, 0, 0.976564, -1676.925049, 73.282127)" style="">
    <g>
      <path d="M290.281,229.511c-4.715-1.588-9.794,0.978-11.364,5.68l-8.982,26.947c-1.57,4.706,0.974,9.794,5.68,11.364 c0.943,0.316,1.904,0.465,2.842,0.465c3.763,0,7.268-2.381,8.522-6.145l8.982-26.947 C297.531,236.169,294.987,231.081,290.281,229.511z" style="fill: rgb(255, 215, 0); fill-opacity: 0.34;"/>
    </g>
  </g>
  <g transform="matrix(0.976564, 0, 0, 0.976564, -1676.925049, 73.282127)" style="">
    <g>
      <path d="M263.333,319.336c-4.724-1.574-9.798,0.978-11.364,5.68l-8.982,26.947c-1.57,4.706,0.974,9.794,5.68,11.364 c0.943,0.316,1.904,0.465,2.842,0.465c3.763,0,7.268-2.382,8.522-6.145l8.982-26.947 C270.583,325.994,268.04,320.906,263.333,319.336z" style="fill: rgb(255, 215, 0); fill-opacity: 0.34;"/>
    </g>
  </g>
  <g transform="matrix(0.976564, 0, 0, 0.976564, -1676.925049, 73.282127)" style="">
    <g>
      <path d="M236.386,400.178c-4.715-1.583-9.794,0.978-11.364,5.68l-8.982,26.947c-1.57,4.706,0.974,9.794,5.68,11.364 c0.943,0.316,1.904,0.465,2.842,0.465c3.763,0,7.268-2.381,8.522-6.145l8.982-26.947 C243.636,406.836,241.092,401.748,236.386,400.178z" style="fill: rgb(0, 87, 183); fill-opacity: 0.34;"/>
    </g>
  </g>
  <g transform="matrix(0.976564, 0, 0, 0.976564, -1676.925049, 73.282127)" style="">
    <g>
      <path d="M353.158,310.353c-4.733-1.574-9.794,0.978-11.364,5.68l-8.982,26.947c-1.57,4.706,0.974,9.794,5.68,11.364 c0.943,0.316,1.904,0.465,2.842,0.465c3.763,0,7.268-2.381,8.522-6.145l8.982-26.947 C360.408,317.011,357.864,311.923,353.158,310.353z" style="fill: rgb(0, 87, 183); fill-opacity: 0.34;"/>
    </g>
  </g>
  <g transform="matrix(0.976564, 0, 0, 0.976564, -1676.925049, 73.282127)" style="">
    <g>
      <path d="M326.211,400.178c-4.724-1.583-9.798,0.978-11.364,5.68l-8.982,26.947c-1.57,4.706,0.974,9.794,5.68,11.364 c0.943,0.316,1.904,0.465,2.842,0.465c3.763,0,7.268-2.381,8.522-6.145l8.982-26.947 C333.461,406.836,330.917,401.748,326.211,400.178z" style="fill: rgb(255, 215, 0); fill-opacity: 0.34;"/>
    </g>
  </g>
  <g transform="matrix(0.976564, 0, 0, 0.976564, -1650.602783, -12.924285)" style="">
    <g>
      <path d="M353.158,310.353c-4.733-1.574-9.794,0.978-11.364,5.68l-8.982,26.947c-1.57,4.706,0.974,9.794,5.68,11.364 c0.943,0.316,1.904,0.465,2.842,0.465c3.763,0,7.268-2.381,8.522-6.145l8.982-26.947 C360.408,317.011,357.864,311.923,353.158,310.353z" style="fill: rgb(0, 87, 183); fill-opacity: 0.34;"/>
    </g>
  </g>
  <g transform="matrix(0.976564, 0, 0, 0.976564, -1425.186035, 73.553062)" style="">
    <g>
      <path d="M200.456,256.458c-4.728-1.574-9.798,0.978-11.364,5.68l-8.982,26.947c-1.57,4.706,0.974,9.794,5.68,11.364 c0.943,0.316,1.904,0.465,2.842,0.465c3.763,0,7.268-2.381,8.522-6.145l8.982-26.947 C207.706,263.116,205.162,258.028,200.456,256.458z" style="fill: rgb(0, 87, 183); fill-opacity: 0.34;"/>
    </g>
  </g>
  <path d="M -1255.743 411.721 C -1260.352 410.175 -1265.308 412.676 -1266.841 417.268 L -1275.612 443.583 C -1277.146 448.179 -1274.661 453.148 -1270.066 454.681 C -1269.145 454.989 -1268.206 455.135 -1267.29 455.135 C -1263.615 455.135 -1260.193 452.81 -1258.968 449.134 L -1250.196 422.818 C -1248.663 418.223 -1251.148 413.254 -1255.743 411.721 Z" style="fill: rgb(255, 215, 0); fill-opacity: 0.34;"/>
  <g transform="matrix(0.976564, 0, 0, 0.976564, -1425.186035, 73.553062)" style="">
    <g>
      <path d="M146.562,427.125c-4.728-1.574-9.798,0.978-11.364,5.68l-8.982,26.947c-1.57,4.706,0.974,9.794,5.68,11.364 c0.943,0.316,1.904,0.465,2.842,0.465c3.763,0,7.268-2.381,8.522-6.145l8.982-26.947 C153.812,433.783,151.268,428.695,146.562,427.125z" style="fill: rgb(0, 87, 183); fill-opacity: 0.34;"/>
    </g>
  </g>
  <g transform="matrix(0.976564, 0, 0, 0.976564, -1425.186035, 73.553062)" style="">
    <g>
      <path d="M290.281,229.511c-4.715-1.588-9.794,0.978-11.364,5.68l-8.982,26.947c-1.57,4.706,0.974,9.794,5.68,11.364 c0.943,0.316,1.904,0.465,2.842,0.465c3.763,0,7.268-2.381,8.522-6.145l8.982-26.947 C297.531,236.169,294.987,231.081,290.281,229.511z" style="fill: rgb(255, 215, 0); fill-opacity: 0.34;"/>
    </g>
  </g>
  <g transform="matrix(0.976564, 0, 0, 0.976564, -1425.186035, 73.553062)" style="">
    <g>
      <path d="M263.333,319.336c-4.724-1.574-9.798,0.978-11.364,5.68l-8.982,26.947c-1.57,4.706,0.974,9.794,5.68,11.364 c0.943,0.316,1.904,0.465,2.842,0.465c3.763,0,7.268-2.382,8.522-6.145l8.982-26.947 C270.583,325.994,268.04,320.906,263.333,319.336z" style="fill: rgb(255, 215, 0); fill-opacity: 0.34;"/>
    </g>
  </g>
  <g transform="matrix(0.976564, 0, 0, 0.976564, -1425.186035, 73.553062)" style="">
    <g>
      <path d="M236.386,400.178c-4.715-1.583-9.794,0.978-11.364,5.68l-8.982,26.947c-1.57,4.706,0.974,9.794,5.68,11.364 c0.943,0.316,1.904,0.465,2.842,0.465c3.763,0,7.268-2.381,8.522-6.145l8.982-26.947 C243.636,406.836,241.092,401.748,236.386,400.178z" style="fill: rgb(0, 87, 183); fill-opacity: 0.34;"/>
    </g>
  </g>
  <g transform="matrix(0.976564, 0, 0, 0.976564, -1425.186035, 73.553062)" style="">
    <g>
      <path d="M353.158,310.353c-4.733-1.574-9.794,0.978-11.364,5.68l-8.982,26.947c-1.57,4.706,0.974,9.794,5.68,11.364 c0.943,0.316,1.904,0.465,2.842,0.465c3.763,0,7.268-2.381,8.522-6.145l8.982-26.947 C360.408,317.011,357.864,311.923,353.158,310.353z" style="fill: rgb(0, 87, 183); fill-opacity: 0.34;"/>
    </g>
  </g>
  <g transform="matrix(0.976564, 0, 0, 0.976564, -1425.186035, 73.553062)" style="">
    <g>
      <path d="M326.211,400.178c-4.724-1.583-9.798,0.978-11.364,5.68l-8.982,26.947c-1.57,4.706,0.974,9.794,5.68,11.364 c0.943,0.316,1.904,0.465,2.842,0.465c3.763,0,7.268-2.381,8.522-6.145l8.982-26.947 C333.461,406.836,330.917,401.748,326.211,400.178z" style="fill: rgb(255, 215, 0); fill-opacity: 0.34;"/>
    </g>
  </g>
  <g transform="matrix(0.976564, 0, 0, 0.976564, -1398.863892, -12.653356)" style="">
    <g>
      <path d="M353.158,310.353c-4.733-1.574-9.794,0.978-11.364,5.68l-8.982,26.947c-1.57,4.706,0.974,9.794,5.68,11.364 c0.943,0.316,1.904,0.465,2.842,0.465c3.763,0,7.268-2.381,8.522-6.145l8.982-26.947 C360.408,317.011,357.864,311.923,353.158,310.353z" style="fill: rgb(0, 87, 183); fill-opacity: 0.34;"/>
    </g>
  </g>
  <g transform="matrix(0.976564, 0, 0, 0.976564, -1177.002075, 73.577698)" style="">
    <g>
      <path d="M200.456,256.458c-4.728-1.574-9.798,0.978-11.364,5.68l-8.982,26.947c-1.57,4.706,0.974,9.794,5.68,11.364 c0.943,0.316,1.904,0.465,2.842,0.465c3.763,0,7.268-2.381,8.522-6.145l8.982-26.947 C207.706,263.116,205.162,258.028,200.456,256.458z" style="fill: rgb(0, 87, 183); fill-opacity: 0.34;"/>
    </g>
  </g>
  <path d="M -1007.559 411.746 C -1012.168 410.2 -1017.124 412.701 -1018.657 417.293 L -1027.428 443.608 C -1028.962 448.204 -1026.477 453.173 -1021.882 454.706 C -1020.961 455.014 -1020.022 455.16 -1019.106 455.16 C -1015.431 455.16 -1012.009 452.835 -1010.784 449.159 L -1002.012 422.843 C -1000.479 418.248 -1002.964 413.279 -1007.559 411.746 Z" style="fill: rgb(255, 215, 0); fill-opacity: 0.34;"/>
  <g transform="matrix(0.976564, 0, 0, 0.976564, -1177.002075, 73.577698)" style="">
    <g>
      <path d="M146.562,427.125c-4.728-1.574-9.798,0.978-11.364,5.68l-8.982,26.947c-1.57,4.706,0.974,9.794,5.68,11.364 c0.943,0.316,1.904,0.465,2.842,0.465c3.763,0,7.268-2.381,8.522-6.145l8.982-26.947 C153.812,433.783,151.268,428.695,146.562,427.125z" style="fill: rgb(0, 87, 183); fill-opacity: 0.34;"/>
    </g>
  </g>
  <g transform="matrix(0.976564, 0, 0, 0.976564, -1177.002075, 73.577698)" style="">
    <g>
      <path d="M290.281,229.511c-4.715-1.588-9.794,0.978-11.364,5.68l-8.982,26.947c-1.57,4.706,0.974,9.794,5.68,11.364 c0.943,0.316,1.904,0.465,2.842,0.465c3.763,0,7.268-2.381,8.522-6.145l8.982-26.947 C297.531,236.169,294.987,231.081,290.281,229.511z" style="fill: rgb(255, 215, 0); fill-opacity: 0.34;"/>
    </g>
  </g>
  <g transform="matrix(0.976564, 0, 0, 0.976564, -1177.002075, 73.577698)" style="">
    <g>
      <path d="M263.333,319.336c-4.724-1.574-9.798,0.978-11.364,5.68l-8.982,26.947c-1.57,4.706,0.974,9.794,5.68,11.364 c0.943,0.316,1.904,0.465,2.842,0.465c3.763,0,7.268-2.382,8.522-6.145l8.982-26.947 C270.583,325.994,268.04,320.906,263.333,319.336z" style="fill: rgb(255, 215, 0); fill-opacity: 0.34;"/>
    </g>
  </g>
  <g transform="matrix(0.976564, 0, 0, 0.976564, -1177.002075, 73.577698)" style="">
    <g>
      <path d="M236.386,400.178c-4.715-1.583-9.794,0.978-11.364,5.68l-8.982,26.947c-1.57,4.706,0.974,9.794,5.68,11.364 c0.943,0.316,1.904,0.465,2.842,0.465c3.763,0,7.268-2.381,8.522-6.145l8.982-26.947 C243.636,406.836,241.092,401.748,236.386,400.178z" style="fill: rgb(0, 87, 183); fill-opacity: 0.34;"/>
    </g>
  </g>
  <g transform="matrix(0.976564, 0, 0, 0.976564, -1177.002075, 73.577698)" style="">
    <g>
      <path d="M353.158,310.353c-4.733-1.574-9.794,0.978-11.364,5.68l-8.982,26.947c-1.57,4.706,0.974,9.794,5.68,11.364 c0.943,0.316,1.904,0.465,2.842,0.465c3.763,0,7.268-2.381,8.522-6.145l8.982-26.947 C360.408,317.011,357.864,311.923,353.158,310.353z" style="fill: rgb(0, 87, 183); fill-opacity: 0.34;"/>
    </g>
  </g>
  <g transform="matrix(0.976564, 0, 0, 0.976564, -1177.002075, 73.577698)" style="">
    <g>
      <path d="M326.211,400.178c-4.724-1.583-9.798,0.978-11.364,5.68l-8.982,26.947c-1.57,4.706,0.974,9.794,5.68,11.364 c0.943,0.316,1.904,0.465,2.842,0.465c3.763,0,7.268-2.381,8.522-6.145l8.982-26.947 C333.461,406.836,330.917,401.748,326.211,400.178z" style="fill: rgb(255, 215, 0); fill-opacity: 0.34;"/>
    </g>
  </g>
  <g transform="matrix(0.976564, 0, 0, 0.976564, -1150.67981, -12.628718)" style="">
    <g>
      <path d="M353.158,310.353c-4.733-1.574-9.794,0.978-11.364,5.68l-8.982,26.947c-1.57,4.706,0.974,9.794,5.68,11.364 c0.943,0.316,1.904,0.465,2.842,0.465c3.763,0,7.268-2.381,8.522-6.145l8.982-26.947 C360.408,317.011,357.864,311.923,353.158,310.353z" style="fill: rgb(0, 87, 183); fill-opacity: 0.34;"/>
    </g>
  </g>
  <g transform="matrix(0.976564, 0, 0, 0.976564, -930.483704, 73.577698)" style="">
    <g>
      <path d="M200.456,256.458c-4.728-1.574-9.798,0.978-11.364,5.68l-8.982,26.947c-1.57,4.706,0.974,9.794,5.68,11.364 c0.943,0.316,1.904,0.465,2.842,0.465c3.763,0,7.268-2.381,8.522-6.145l8.982-26.947 C207.706,263.116,205.162,258.028,200.456,256.458z" style="fill: rgb(0, 87, 183); fill-opacity: 0.34;"/>
    </g>
  </g>
  <path d="M -761.041 411.746 C -765.65 410.2 -770.606 412.701 -772.139 417.293 L -780.91 443.608 C -782.444 448.204 -779.959 453.173 -775.364 454.706 C -774.443 455.014 -773.504 455.16 -772.588 455.16 C -768.913 455.16 -765.491 452.835 -764.266 449.159 L -755.494 422.843 C -753.961 418.248 -756.446 413.279 -761.041 411.746 Z" style="fill: rgb(255, 215, 0); fill-opacity: 0.34;"/>
  <g transform="matrix(0.976564, 0, 0, 0.976564, -930.483704, 73.577698)" style="">
    <g>
      <path d="M146.562,427.125c-4.728-1.574-9.798,0.978-11.364,5.68l-8.982,26.947c-1.57,4.706,0.974,9.794,5.68,11.364 c0.943,0.316,1.904,0.465,2.842,0.465c3.763,0,7.268-2.381,8.522-6.145l8.982-26.947 C153.812,433.783,151.268,428.695,146.562,427.125z" style="fill: rgb(0, 87, 183); fill-opacity: 0.34;"/>
    </g>
  </g>
  <g transform="matrix(0.976564, 0, 0, 0.976564, -930.483704, 73.577698)" style="">
    <g>
      <path d="M290.281,229.511c-4.715-1.588-9.794,0.978-11.364,5.68l-8.982,26.947c-1.57,4.706,0.974,9.794,5.68,11.364 c0.943,0.316,1.904,0.465,2.842,0.465c3.763,0,7.268-2.381,8.522-6.145l8.982-26.947 C297.531,236.169,294.987,231.081,290.281,229.511z" style="fill: rgb(255, 215, 0); fill-opacity: 0.34;"/>
    </g>
  </g>
  <g transform="matrix(0.976564, 0, 0, 0.976564, -930.483704, 73.577698)" style="">
    <g>
      <path d="M263.333,319.336c-4.724-1.574-9.798,0.978-11.364,5.68l-8.982,26.947c-1.57,4.706,0.974,9.794,5.68,11.364 c0.943,0.316,1.904,0.465,2.842,0.465c3.763,0,7.268-2.382,8.522-6.145l8.982-26.947 C270.583,325.994,268.04,320.906,263.333,319.336z" style="fill: rgb(255, 215, 0); fill-opacity: 0.34;"/>
    </g>
  </g>
  <g transform="matrix(0.976564, 0, 0, 0.976564, -930.483704, 73.577698)" style="">
    <g>
      <path d="M236.386,400.178c-4.715-1.583-9.794,0.978-11.364,5.68l-8.982,26.947c-1.57,4.706,0.974,9.794,5.68,11.364 c0.943,0.316,1.904,0.465,2.842,0.465c3.763,0,7.268-2.381,8.522-6.145l8.982-26.947 C243.636,406.836,241.092,401.748,236.386,400.178z" style="fill: rgb(0, 87, 183); fill-opacity: 0.34;"/>
    </g>
  </g>
  <g transform="matrix(0.976564, 0, 0, 0.976564, -930.483704, 73.577698)" style="">
    <g>
      <path d="M353.158,310.353c-4.733-1.574-9.794,0.978-11.364,5.68l-8.982,26.947c-1.57,4.706,0.974,9.794,5.68,11.364 c0.943,0.316,1.904,0.465,2.842,0.465c3.763,0,7.268-2.381,8.522-6.145l8.982-26.947 C360.408,317.011,357.864,311.923,353.158,310.353z" style="fill: rgb(0, 87, 183); fill-opacity: 0.34;"/>
    </g>
  </g>
  <g transform="matrix(0.976564, 0, 0, 0.976564, -930.483704, 73.577698)" style="">
    <g>
      <path d="M326.211,400.178c-4.724-1.583-9.798,0.978-11.364,5.68l-8.982,26.947c-1.57,4.706,0.974,9.794,5.68,11.364 c0.943,0.316,1.904,0.465,2.842,0.465c3.763,0,7.268-2.381,8.522-6.145l8.982-26.947 C333.461,406.836,330.917,401.748,326.211,400.178z" style="fill: rgb(255, 215, 0); fill-opacity: 0.34;"/>
    </g>
  </g>
  <g transform="matrix(0.976564, 0, 0, 0.976564, -904.16156, -12.628718)" style="">
    <g>
      <path d="M353.158,310.353c-4.733-1.574-9.794,0.978-11.364,5.68l-8.982,26.947c-1.57,4.706,0.974,9.794,5.68,11.364 c0.943,0.316,1.904,0.465,2.842,0.465c3.763,0,7.268-2.381,8.522-6.145l8.982-26.947 C360.408,317.011,357.864,311.923,353.158,310.353z" style="fill: rgb(0, 87, 183); fill-opacity: 0.34;"/>
    </g>
  </g>
  <g transform="matrix(0.976564, 0, 0, 0.976564, -2674.869141, 71.821526)" style="">
    <g>
      <path d="M200.456,256.458c-4.728-1.574-9.798,0.978-11.364,5.68l-8.982,26.947c-1.57,4.706,0.974,9.794,5.68,11.364 c0.943,0.316,1.904,0.465,2.842,0.465c3.763,0,7.268-2.381,8.522-6.145l8.982-26.947 C207.706,263.116,205.162,258.028,200.456,256.458z" style="fill: rgb(0, 87, 183); fill-opacity: 0.34;"/>
    </g>
  </g>
  <path d="M -2505.426 409.99 C -2510.035 408.444 -2514.991 410.945 -2516.524 415.537 L -2525.295 441.852 C -2526.829 446.448 -2524.344 451.417 -2519.749 452.95 C -2518.828 453.258 -2517.889 453.404 -2516.973 453.404 C -2513.298 453.404 -2509.876 451.079 -2508.651 447.403 L -2499.879 421.087 C -2498.346 416.492 -2500.831 411.523 -2505.426 409.99 Z" style="fill: rgb(255, 215, 0); fill-opacity: 0.34;"/>
  <g transform="matrix(0.976564, 0, 0, 0.976564, -2674.869141, 71.821526)" style="">
    <g>
      <path d="M146.562,427.125c-4.728-1.574-9.798,0.978-11.364,5.68l-8.982,26.947c-1.57,4.706,0.974,9.794,5.68,11.364 c0.943,0.316,1.904,0.465,2.842,0.465c3.763,0,7.268-2.381,8.522-6.145l8.982-26.947 C153.812,433.783,151.268,428.695,146.562,427.125z" style="fill: rgb(0, 87, 183); fill-opacity: 0.34;"/>
    </g>
  </g>
  <g transform="matrix(0.976564, 0, 0, 0.976564, -2674.869141, 71.821526)" style="">
    <g>
      <path d="M290.281,229.511c-4.715-1.588-9.794,0.978-11.364,5.68l-8.982,26.947c-1.57,4.706,0.974,9.794,5.68,11.364 c0.943,0.316,1.904,0.465,2.842,0.465c3.763,0,7.268-2.381,8.522-6.145l8.982-26.947 C297.531,236.169,294.987,231.081,290.281,229.511z" style="fill: rgb(255, 215, 0); fill-opacity: 0.34;"/>
    </g>
  </g>
  <g transform="matrix(0.976564, 0, 0, 0.976564, -2674.869141, 71.821526)" style="">
    <g>
      <path d="M263.333,319.336c-4.724-1.574-9.798,0.978-11.364,5.68l-8.982,26.947c-1.57,4.706,0.974,9.794,5.68,11.364 c0.943,0.316,1.904,0.465,2.842,0.465c3.763,0,7.268-2.382,8.522-6.145l8.982-26.947 C270.583,325.994,268.04,320.906,263.333,319.336z" style="fill: rgb(255, 215, 0); fill-opacity: 0.34;"/>
    </g>
  </g>
  <g transform="matrix(0.976564, 0, 0, 0.976564, -2674.869141, 71.821526)" style="">
    <g>
      <path d="M236.386,400.178c-4.715-1.583-9.794,0.978-11.364,5.68l-8.982,26.947c-1.57,4.706,0.974,9.794,5.68,11.364 c0.943,0.316,1.904,0.465,2.842,0.465c3.763,0,7.268-2.381,8.522-6.145l8.982-26.947 C243.636,406.836,241.092,401.748,236.386,400.178z" style="fill: rgb(0, 87, 183); fill-opacity: 0.34;"/>
    </g>
  </g>
  <g transform="matrix(0.976564, 0, 0, 0.976564, -2674.869141, 71.821526)" style="">
    <g>
      <path d="M353.158,310.353c-4.733-1.574-9.794,0.978-11.364,5.68l-8.982,26.947c-1.57,4.706,0.974,9.794,5.68,11.364 c0.943,0.316,1.904,0.465,2.842,0.465c3.763,0,7.268-2.381,8.522-6.145l8.982-26.947 C360.408,317.011,357.864,311.923,353.158,310.353z" style="fill: rgb(0, 87, 183); fill-opacity: 0.34;"/>
    </g>
  </g>
  <g transform="matrix(0.976564, 0, 0, 0.976564, -2674.869141, 71.821526)" style="">
    <g>
      <path d="M326.211,400.178c-4.724-1.583-9.798,0.978-11.364,5.68l-8.982,26.947c-1.57,4.706,0.974,9.794,5.68,11.364 c0.943,0.316,1.904,0.465,2.842,0.465c3.763,0,7.268-2.381,8.522-6.145l8.982-26.947 C333.461,406.836,330.917,401.748,326.211,400.178z" style="fill: rgb(255, 215, 0); fill-opacity: 0.34;"/>
    </g>
  </g>
  <g transform="matrix(0.976564, 0, 0, 0.976564, -2648.546875, -14.384887)" style="">
    <g>
      <path d="M353.158,310.353c-4.733-1.574-9.794,0.978-11.364,5.68l-8.982,26.947c-1.57,4.706,0.974,9.794,5.68,11.364 c0.943,0.316,1.904,0.465,2.842,0.465c3.763,0,7.268-2.381,8.522-6.145l8.982-26.947 C360.408,317.011,357.864,311.923,353.158,310.353z" style="fill: rgb(0, 87, 183); fill-opacity: 0.34;"/>
    </g>
  </g>
  <g transform="matrix(0.976564, 0, 0, 0.976564, -2423.130127, 72.092461)" style="">
    <g>
      <path d="M200.456,256.458c-4.728-1.574-9.798,0.978-11.364,5.68l-8.982,26.947c-1.57,4.706,0.974,9.794,5.68,11.364 c0.943,0.316,1.904,0.465,2.842,0.465c3.763,0,7.268-2.381,8.522-6.145l8.982-26.947 C207.706,263.116,205.162,258.028,200.456,256.458z" style="fill: rgb(0, 87, 183); fill-opacity: 0.34;"/>
    </g>
  </g>
  <path d="M -2253.687 410.261 C -2258.296 408.715 -2263.252 411.216 -2264.785 415.808 L -2273.556 442.123 C -2275.09 446.719 -2272.605 451.688 -2268.01 453.221 C -2267.089 453.529 -2266.15 453.675 -2265.234 453.675 C -2261.559 453.675 -2258.137 451.35 -2256.912 447.674 L -2248.14 421.358 C -2246.607 416.763 -2249.092 411.794 -2253.687 410.261 Z" style="fill: rgb(255, 215, 0); fill-opacity: 0.34;"/>
  <g transform="matrix(0.976564, 0, 0, 0.976564, -2423.130127, 72.092461)" style="">
    <g>
      <path d="M146.562,427.125c-4.728-1.574-9.798,0.978-11.364,5.68l-8.982,26.947c-1.57,4.706,0.974,9.794,5.68,11.364 c0.943,0.316,1.904,0.465,2.842,0.465c3.763,0,7.268-2.381,8.522-6.145l8.982-26.947 C153.812,433.783,151.268,428.695,146.562,427.125z" style="fill: rgb(0, 87, 183); fill-opacity: 0.34;"/>
    </g>
  </g>
  <g transform="matrix(0.976564, 0, 0, 0.976564, -2423.130127, 72.092461)" style="">
    <g>
      <path d="M290.281,229.511c-4.715-1.588-9.794,0.978-11.364,5.68l-8.982,26.947c-1.57,4.706,0.974,9.794,5.68,11.364 c0.943,0.316,1.904,0.465,2.842,0.465c3.763,0,7.268-2.381,8.522-6.145l8.982-26.947 C297.531,236.169,294.987,231.081,290.281,229.511z" style="fill: rgb(255, 215, 0); fill-opacity: 0.34;"/>
    </g>
  </g>
  <g transform="matrix(0.976564, 0, 0, 0.976564, -2423.130127, 72.092461)" style="">
    <g>
      <path d="M263.333,319.336c-4.724-1.574-9.798,0.978-11.364,5.68l-8.982,26.947c-1.57,4.706,0.974,9.794,5.68,11.364 c0.943,0.316,1.904,0.465,2.842,0.465c3.763,0,7.268-2.382,8.522-6.145l8.982-26.947 C270.583,325.994,268.04,320.906,263.333,319.336z" style="fill: rgb(255, 215, 0); fill-opacity: 0.34;"/>
    </g>
  </g>
  <g transform="matrix(0.976564, 0, 0, 0.976564, -2423.130127, 72.092461)" style="">
    <g>
      <path d="M236.386,400.178c-4.715-1.583-9.794,0.978-11.364,5.68l-8.982,26.947c-1.57,4.706,0.974,9.794,5.68,11.364 c0.943,0.316,1.904,0.465,2.842,0.465c3.763,0,7.268-2.381,8.522-6.145l8.982-26.947 C243.636,406.836,241.092,401.748,236.386,400.178z" style="fill: rgb(0, 87, 183); fill-opacity: 0.34;"/>
    </g>
  </g>
  <g transform="matrix(0.976564, 0, 0, 0.976564, -2423.130127, 72.092461)" style="">
    <g>
      <path d="M353.158,310.353c-4.733-1.574-9.794,0.978-11.364,5.68l-8.982,26.947c-1.57,4.706,0.974,9.794,5.68,11.364 c0.943,0.316,1.904,0.465,2.842,0.465c3.763,0,7.268-2.381,8.522-6.145l8.982-26.947 C360.408,317.011,357.864,311.923,353.158,310.353z" style="fill: rgb(0, 87, 183); fill-opacity: 0.34;"/>
    </g>
  </g>
  <g transform="matrix(0.976564, 0, 0, 0.976564, -2423.130127, 72.092461)" style="">
    <g>
      <path d="M326.211,400.178c-4.724-1.583-9.798,0.978-11.364,5.68l-8.982,26.947c-1.57,4.706,0.974,9.794,5.68,11.364 c0.943,0.316,1.904,0.465,2.842,0.465c3.763,0,7.268-2.381,8.522-6.145l8.982-26.947 C333.461,406.836,330.917,401.748,326.211,400.178z" style="fill: rgb(255, 215, 0); fill-opacity: 0.34;"/>
    </g>
  </g>
  <g transform="matrix(0.976564, 0, 0, 0.976564, -2396.807861, -14.113953)" style="">
    <g>
      <path d="M353.158,310.353c-4.733-1.574-9.794,0.978-11.364,5.68l-8.982,26.947c-1.57,4.706,0.974,9.794,5.68,11.364 c0.943,0.316,1.904,0.465,2.842,0.465c3.763,0,7.268-2.381,8.522-6.145l8.982-26.947 C360.408,317.011,357.864,311.923,353.158,310.353z" style="fill: rgb(0, 87, 183); fill-opacity: 0.34;"/>
    </g>
  </g>
  <g transform="matrix(0.976564, 0, 0, 0.976564, -2174.946045, 72.117104)" style="">
    <g>
      <path d="M200.456,256.458c-4.728-1.574-9.798,0.978-11.364,5.68l-8.982,26.947c-1.57,4.706,0.974,9.794,5.68,11.364 c0.943,0.316,1.904,0.465,2.842,0.465c3.763,0,7.268-2.381,8.522-6.145l8.982-26.947 C207.706,263.116,205.162,258.028,200.456,256.458z" style="fill: rgb(0, 87, 183); fill-opacity: 0.34;"/>
    </g>
  </g>
  <path d="M -2005.503 410.286 C -2010.112 408.74 -2015.068 411.241 -2016.601 415.833 L -2025.372 442.148 C -2026.906 446.744 -2024.421 451.713 -2019.826 453.246 C -2018.905 453.554 -2017.966 453.7 -2017.05 453.7 C -2013.375 453.7 -2009.953 451.375 -2008.728 447.699 L -1999.956 421.383 C -1998.423 416.788 -2000.908 411.819 -2005.503 410.286 Z" style="fill: rgb(255, 215, 0); fill-opacity: 0.34;"/>
  <g transform="matrix(0.976564, 0, 0, 0.976564, -2174.946045, 72.117104)" style="">
    <g>
      <path d="M146.562,427.125c-4.728-1.574-9.798,0.978-11.364,5.68l-8.982,26.947c-1.57,4.706,0.974,9.794,5.68,11.364 c0.943,0.316,1.904,0.465,2.842,0.465c3.763,0,7.268-2.381,8.522-6.145l8.982-26.947 C153.812,433.783,151.268,428.695,146.562,427.125z" style="fill: rgb(0, 87, 183); fill-opacity: 0.34;"/>
    </g>
  </g>
  <g transform="matrix(0.976564, 0, 0, 0.976564, -2174.946045, 72.117104)" style="">
    <g>
      <path d="M290.281,229.511c-4.715-1.588-9.794,0.978-11.364,5.68l-8.982,26.947c-1.57,4.706,0.974,9.794,5.68,11.364 c0.943,0.316,1.904,0.465,2.842,0.465c3.763,0,7.268-2.381,8.522-6.145l8.982-26.947 C297.531,236.169,294.987,231.081,290.281,229.511z" style="fill: rgb(255, 215, 0); fill-opacity: 0.34;"/>
    </g>
  </g>
  <g transform="matrix(0.976564, 0, 0, 0.976564, -2174.946045, 72.117104)" style="">
    <g>
      <path d="M263.333,319.336c-4.724-1.574-9.798,0.978-11.364,5.68l-8.982,26.947c-1.57,4.706,0.974,9.794,5.68,11.364 c0.943,0.316,1.904,0.465,2.842,0.465c3.763,0,7.268-2.382,8.522-6.145l8.982-26.947 C270.583,325.994,268.04,320.906,263.333,319.336z" style="fill: rgb(255, 215, 0); fill-opacity: 0.34;"/>
    </g>
  </g>
  <g transform="matrix(0.976564, 0, 0, 0.976564, -2174.946045, 72.117104)" style="">
    <g>
      <path d="M236.386,400.178c-4.715-1.583-9.794,0.978-11.364,5.68l-8.982,26.947c-1.57,4.706,0.974,9.794,5.68,11.364 c0.943,0.316,1.904,0.465,2.842,0.465c3.763,0,7.268-2.381,8.522-6.145l8.982-26.947 C243.636,406.836,241.092,401.748,236.386,400.178z" style="fill: rgb(0, 87, 183); fill-opacity: 0.34;"/>
    </g>
  </g>
  <g transform="matrix(0.976564, 0, 0, 0.976564, -2174.946045, 72.117104)" style="">
    <g>
      <path d="M353.158,310.353c-4.733-1.574-9.794,0.978-11.364,5.68l-8.982,26.947c-1.57,4.706,0.974,9.794,5.68,11.364 c0.943,0.316,1.904,0.465,2.842,0.465c3.763,0,7.268-2.381,8.522-6.145l8.982-26.947 C360.408,317.011,357.864,311.923,353.158,310.353z" style="fill: rgb(0, 87, 183); fill-opacity: 0.34;"/>
    </g>
  </g>
  <g transform="matrix(0.976564, 0, 0, 0.976564, -2174.946045, 72.117104)" style="">
    <g>
      <path d="M326.211,400.178c-4.724-1.583-9.798,0.978-11.364,5.68l-8.982,26.947c-1.57,4.706,0.974,9.794,5.68,11.364 c0.943,0.316,1.904,0.465,2.842,0.465c3.763,0,7.268-2.381,8.522-6.145l8.982-26.947 C333.461,406.836,330.917,401.748,326.211,400.178z" style="fill: rgb(255, 215, 0); fill-opacity: 0.34;"/>
    </g>
  </g>
  <g transform="matrix(0.976564, 0, 0, 0.976564, -2148.623779, -14.089316)" style="">
    <g>
      <path d="M353.158,310.353c-4.733-1.574-9.794,0.978-11.364,5.68l-8.982,26.947c-1.57,4.706,0.974,9.794,5.68,11.364 c0.943,0.316,1.904,0.465,2.842,0.465c3.763,0,7.268-2.381,8.522-6.145l8.982-26.947 C360.408,317.011,357.864,311.923,353.158,310.353z" style="fill: rgb(0, 87, 183); fill-opacity: 0.34;"/>
    </g>
  </g>
  <g transform="matrix(0.976564, 0, 0, 0.976564, -1928.427979, 72.117104)" style="">
    <g>
      <path d="M200.456,256.458c-4.728-1.574-9.798,0.978-11.364,5.68l-8.982,26.947c-1.57,4.706,0.974,9.794,5.68,11.364 c0.943,0.316,1.904,0.465,2.842,0.465c3.763,0,7.268-2.381,8.522-6.145l8.982-26.947 C207.706,263.116,205.162,258.028,200.456,256.458z" style="fill: rgb(0, 87, 183); fill-opacity: 0.34;"/>
    </g>
  </g>
  <path d="M -1758.985 410.286 C -1763.594 408.74 -1768.55 411.241 -1770.083 415.833 L -1778.854 442.148 C -1780.388 446.744 -1777.903 451.713 -1773.308 453.246 C -1772.387 453.554 -1771.448 453.7 -1770.532 453.7 C -1766.857 453.7 -1763.435 451.375 -1762.21 447.699 L -1753.438 421.383 C -1751.905 416.788 -1754.39 411.819 -1758.985 410.286 Z" style="fill: rgb(255, 215, 0); fill-opacity: 0.34;"/>
  <g transform="matrix(0.976564, 0, 0, 0.976564, -1928.427979, 72.117104)" style="">
    <g>
      <path d="M146.562,427.125c-4.728-1.574-9.798,0.978-11.364,5.68l-8.982,26.947c-1.57,4.706,0.974,9.794,5.68,11.364 c0.943,0.316,1.904,0.465,2.842,0.465c3.763,0,7.268-2.381,8.522-6.145l8.982-26.947 C153.812,433.783,151.268,428.695,146.562,427.125z" style="fill: rgb(0, 87, 183); fill-opacity: 0.34;"/>
    </g>
  </g>
  <g transform="matrix(0.976564, 0, 0, 0.976564, -1928.427979, 72.117104)" style="">
    <g>
      <path d="M290.281,229.511c-4.715-1.588-9.794,0.978-11.364,5.68l-8.982,26.947c-1.57,4.706,0.974,9.794,5.68,11.364 c0.943,0.316,1.904,0.465,2.842,0.465c3.763,0,7.268-2.381,8.522-6.145l8.982-26.947 C297.531,236.169,294.987,231.081,290.281,229.511z" style="fill: rgb(255, 215, 0); fill-opacity: 0.34;"/>
    </g>
  </g>
  <g transform="matrix(0.976564, 0, 0, 0.976564, -1928.427979, 72.117104)" style="">
    <g>
      <path d="M263.333,319.336c-4.724-1.574-9.798,0.978-11.364,5.68l-8.982,26.947c-1.57,4.706,0.974,9.794,5.68,11.364 c0.943,0.316,1.904,0.465,2.842,0.465c3.763,0,7.268-2.382,8.522-6.145l8.982-26.947 C270.583,325.994,268.04,320.906,263.333,319.336z" style="fill: rgb(255, 215, 0); fill-opacity: 0.34;"/>
    </g>
  </g>
  <g transform="matrix(0.976564, 0, 0, 0.976564, -1928.427979, 72.117104)" style="">
    <g>
      <path d="M236.386,400.178c-4.715-1.583-9.794,0.978-11.364,5.68l-8.982,26.947c-1.57,4.706,0.974,9.794,5.68,11.364 c0.943,0.316,1.904,0.465,2.842,0.465c3.763,0,7.268-2.381,8.522-6.145l8.982-26.947 C243.636,406.836,241.092,401.748,236.386,400.178z" style="fill: rgb(0, 87, 183); fill-opacity: 0.34;"/>
    </g>
  </g>
  <g transform="matrix(0.976564, 0, 0, 0.976564, -1928.427979, 72.117104)" style="">
    <g>
      <path d="M353.158,310.353c-4.733-1.574-9.794,0.978-11.364,5.68l-8.982,26.947c-1.57,4.706,0.974,9.794,5.68,11.364 c0.943,0.316,1.904,0.465,2.842,0.465c3.763,0,7.268-2.381,8.522-6.145l8.982-26.947 C360.408,317.011,357.864,311.923,353.158,310.353z" style="fill: rgb(0, 87, 183); fill-opacity: 0.34;"/>
    </g>
  </g>
  <g transform="matrix(0.976564, 0, 0, 0.976564, -1928.427979, 72.117104)" style="">
    <g>
      <path d="M326.211,400.178c-4.724-1.583-9.798,0.978-11.364,5.68l-8.982,26.947c-1.57,4.706,0.974,9.794,5.68,11.364 c0.943,0.316,1.904,0.465,2.842,0.465c3.763,0,7.268-2.381,8.522-6.145l8.982-26.947 C333.461,406.836,330.917,401.748,326.211,400.178z" style="fill: rgb(255, 215, 0); fill-opacity: 0.34;"/>
    </g>
  </g>
  <g transform="matrix(0.976564, 0, 0, 0.976564, 2304.13623, 71.425987)" style="">
    <g>
      <path d="M200.456,256.458c-4.728-1.574-9.798,0.978-11.364,5.68l-8.982,26.947c-1.57,4.706,0.974,9.794,5.68,11.364 c0.943,0.316,1.904,0.465,2.842,0.465c3.763,0,7.268-2.381,8.522-6.145l8.982-26.947 C207.706,263.116,205.162,258.028,200.456,256.458z" style="fill: rgb(0, 87, 183); fill-opacity: 0.34;"/>
    </g>
  </g>
  <path d="M 2473.579 409.594 C 2468.97 408.048 2464.014 410.549 2462.481 415.141 L 2453.71 441.456 C 2452.176 446.052 2454.661 451.021 2459.256 452.554 C 2460.177 452.862 2461.116 453.008 2462.032 453.008 C 2465.707 453.008 2469.129 450.683 2470.354 447.007 L 2479.126 420.691 C 2480.659 416.096 2478.174 411.127 2473.579 409.594 Z" style="fill: rgb(255, 215, 0); fill-opacity: 0.34;"/>
  <g transform="matrix(0.976564, 0, 0, 0.976564, 2304.13623, 71.425987)" style="">
    <g>
      <path d="M146.562,427.125c-4.728-1.574-9.798,0.978-11.364,5.68l-8.982,26.947c-1.57,4.706,0.974,9.794,5.68,11.364 c0.943,0.316,1.904,0.465,2.842,0.465c3.763,0,7.268-2.381,8.522-6.145l8.982-26.947 C153.812,433.783,151.268,428.695,146.562,427.125z" style="fill: rgb(0, 87, 183); fill-opacity: 0.34;"/>
    </g>
  </g>
  <g transform="matrix(0.976564, 0, 0, 0.976564, 2304.13623, 71.425987)" style="">
    <g>
      <path d="M290.281,229.511c-4.715-1.588-9.794,0.978-11.364,5.68l-8.982,26.947c-1.57,4.706,0.974,9.794,5.68,11.364 c0.943,0.316,1.904,0.465,2.842,0.465c3.763,0,7.268-2.381,8.522-6.145l8.982-26.947 C297.531,236.169,294.987,231.081,290.281,229.511z" style="fill: rgb(255, 215, 0); fill-opacity: 0.34;"/>
    </g>
  </g>
  <g transform="matrix(0.976564, 0, 0, 0.976564, 2304.13623, 71.425987)" style="">
    <g>
      <path d="M263.333,319.336c-4.724-1.574-9.798,0.978-11.364,5.68l-8.982,26.947c-1.57,4.706,0.974,9.794,5.68,11.364 c0.943,0.316,1.904,0.465,2.842,0.465c3.763,0,7.268-2.382,8.522-6.145l8.982-26.947 C270.583,325.994,268.04,320.906,263.333,319.336z" style="fill: rgb(255, 215, 0); fill-opacity: 0.34;"/>
    </g>
  </g>
  <g transform="matrix(0.976564, 0, 0, 0.976564, 2304.13623, 71.425987)" style="">
    <g>
      <path d="M236.386,400.178c-4.715-1.583-9.794,0.978-11.364,5.68l-8.982,26.947c-1.57,4.706,0.974,9.794,5.68,11.364 c0.943,0.316,1.904,0.465,2.842,0.465c3.763,0,7.268-2.381,8.522-6.145l8.982-26.947 C243.636,406.836,241.092,401.748,236.386,400.178z" style="fill: rgb(0, 87, 183); fill-opacity: 0.34;"/>
    </g>
  </g>
  <g transform="matrix(0.976564, 0, 0, 0.976564, 2304.13623, 71.425987)" style="">
    <g>
      <path d="M353.158,310.353c-4.733-1.574-9.794,0.978-11.364,5.68l-8.982,26.947c-1.57,4.706,0.974,9.794,5.68,11.364 c0.943,0.316,1.904,0.465,2.842,0.465c3.763,0,7.268-2.381,8.522-6.145l8.982-26.947 C360.408,317.011,357.864,311.923,353.158,310.353z" style="fill: rgb(0, 87, 183); fill-opacity: 0.34;"/>
    </g>
  </g>
  <g transform="matrix(0.976564, 0, 0, 0.976564, 2304.13623, 71.425987)" style="">
    <g>
      <path d="M326.211,400.178c-4.724-1.583-9.798,0.978-11.364,5.68l-8.982,26.947c-1.57,4.706,0.974,9.794,5.68,11.364 c0.943,0.316,1.904,0.465,2.842,0.465c3.763,0,7.268-2.381,8.522-6.145l8.982-26.947 C333.461,406.836,330.917,401.748,326.211,400.178z" style="fill: rgb(255, 215, 0); fill-opacity: 0.34;"/>
    </g>
  </g>
  <g transform="matrix(0.976564, 0, 0, 0.976564, 2330.458496, -14.78043)" style="">
    <g>
      <path d="M353.158,310.353c-4.733-1.574-9.794,0.978-11.364,5.68l-8.982,26.947c-1.57,4.706,0.974,9.794,5.68,11.364 c0.943,0.316,1.904,0.465,2.842,0.465c3.763,0,7.268-2.381,8.522-6.145l8.982-26.947 C360.408,317.011,357.864,311.923,353.158,310.353z" style="fill: rgb(0, 87, 183); fill-opacity: 0.34;"/>
    </g>
  </g>
  <g transform="matrix(0.976564, 0, 0, 0.976564, 2555.875244, 71.696922)" style="">
    <g>
      <path d="M200.456,256.458c-4.728-1.574-9.798,0.978-11.364,5.68l-8.982,26.947c-1.57,4.706,0.974,9.794,5.68,11.364 c0.943,0.316,1.904,0.465,2.842,0.465c3.763,0,7.268-2.381,8.522-6.145l8.982-26.947 C207.706,263.116,205.162,258.028,200.456,256.458z" style="fill: rgb(0, 87, 183); fill-opacity: 0.34;"/>
    </g>
  </g>
  <path d="M 2725.318 409.865 C 2720.709 408.319 2715.753 410.82 2714.22 415.412 L 2705.449 441.727 C 2703.915 446.323 2706.4 451.292 2710.995 452.825 C 2711.916 453.133 2712.855 453.279 2713.771 453.279 C 2717.446 453.279 2720.868 450.954 2722.093 447.278 L 2730.865 420.962 C 2732.398 416.367 2729.913 411.398 2725.318 409.865 Z" style="fill: rgb(255, 215, 0); fill-opacity: 0.34;"/>
  <g transform="matrix(0.976564, 0, 0, 0.976564, 2555.875244, 71.696922)" style="">
    <g>
      <path d="M146.562,427.125c-4.728-1.574-9.798,0.978-11.364,5.68l-8.982,26.947c-1.57,4.706,0.974,9.794,5.68,11.364 c0.943,0.316,1.904,0.465,2.842,0.465c3.763,0,7.268-2.381,8.522-6.145l8.982-26.947 C153.812,433.783,151.268,428.695,146.562,427.125z" style="fill: rgb(0, 87, 183); fill-opacity: 0.34;"/>
    </g>
  </g>
  <g transform="matrix(0.976564, 0, 0, 0.976564, 2555.875244, 71.696922)" style="">
    <g>
      <path d="M290.281,229.511c-4.715-1.588-9.794,0.978-11.364,5.68l-8.982,26.947c-1.57,4.706,0.974,9.794,5.68,11.364 c0.943,0.316,1.904,0.465,2.842,0.465c3.763,0,7.268-2.381,8.522-6.145l8.982-26.947 C297.531,236.169,294.987,231.081,290.281,229.511z" style="fill: rgb(255, 215, 0); fill-opacity: 0.34;"/>
    </g>
  </g>
  <g transform="matrix(0.976564, 0, 0, 0.976564, 2555.875244, 71.696922)" style="">
    <g>
      <path d="M263.333,319.336c-4.724-1.574-9.798,0.978-11.364,5.68l-8.982,26.947c-1.57,4.706,0.974,9.794,5.68,11.364 c0.943,0.316,1.904,0.465,2.842,0.465c3.763,0,7.268-2.382,8.522-6.145l8.982-26.947 C270.583,325.994,268.04,320.906,263.333,319.336z" style="fill: rgb(255, 215, 0); fill-opacity: 0.34;"/>
    </g>
  </g>
  <g transform="matrix(0.976564, 0, 0, 0.976564, 2555.875244, 71.696922)" style="">
    <g>
      <path d="M236.386,400.178c-4.715-1.583-9.794,0.978-11.364,5.68l-8.982,26.947c-1.57,4.706,0.974,9.794,5.68,11.364 c0.943,0.316,1.904,0.465,2.842,0.465c3.763,0,7.268-2.381,8.522-6.145l8.982-26.947 C243.636,406.836,241.092,401.748,236.386,400.178z" style="fill: rgb(0, 87, 183); fill-opacity: 0.34;"/>
    </g>
  </g>
  <g transform="matrix(0.976564, 0, 0, 0.976564, 2555.875244, 71.696922)" style="">
    <g>
      <path d="M353.158,310.353c-4.733-1.574-9.794,0.978-11.364,5.68l-8.982,26.947c-1.57,4.706,0.974,9.794,5.68,11.364 c0.943,0.316,1.904,0.465,2.842,0.465c3.763,0,7.268-2.381,8.522-6.145l8.982-26.947 C360.408,317.011,357.864,311.923,353.158,310.353z" style="fill: rgb(0, 87, 183); fill-opacity: 0.34;"/>
    </g>
  </g>
  <g transform="matrix(0.976564, 0, 0, 0.976564, 2555.875244, 71.696922)" style="">
    <g>
      <path d="M326.211,400.178c-4.724-1.583-9.798,0.978-11.364,5.68l-8.982,26.947c-1.57,4.706,0.974,9.794,5.68,11.364 c0.943,0.316,1.904,0.465,2.842,0.465c3.763,0,7.268-2.381,8.522-6.145l8.982-26.947 C333.461,406.836,330.917,401.748,326.211,400.178z" style="fill: rgb(255, 215, 0); fill-opacity: 0.34;"/>
    </g>
  </g>
  <g transform="matrix(0.976564, 0, 0, 0.976564, 2582.19751, -14.509495)" style="">
    <g>
      <path d="M353.158,310.353c-4.733-1.574-9.794,0.978-11.364,5.68l-8.982,26.947c-1.57,4.706,0.974,9.794,5.68,11.364 c0.943,0.316,1.904,0.465,2.842,0.465c3.763,0,7.268-2.381,8.522-6.145l8.982-26.947 C360.408,317.011,357.864,311.923,353.158,310.353z" style="fill: rgb(0, 87, 183); fill-opacity: 0.34;"/>
    </g>
  </g>
  <g transform="matrix(0.976564, 0, 0, 0.976564, 2804.059326, 71.72155)" style="">
    <g>
      <path d="M200.456,256.458c-4.728-1.574-9.798,0.978-11.364,5.68l-8.982,26.947c-1.57,4.706,0.974,9.794,5.68,11.364 c0.943,0.316,1.904,0.465,2.842,0.465c3.763,0,7.268-2.381,8.522-6.145l8.982-26.947 C207.706,263.116,205.162,258.028,200.456,256.458z" style="fill: rgb(0, 87, 183); fill-opacity: 0.34;"/>
    </g>
  </g>
  <path d="M 2973.502 409.89 C 2968.893 408.344 2963.937 410.845 2962.404 415.437 L 2953.633 441.752 C 2952.099 446.348 2954.584 451.317 2959.179 452.85 C 2960.1 453.158 2961.039 453.304 2961.955 453.304 C 2965.63 453.304 2969.052 450.979 2970.277 447.303 L 2979.049 420.987 C 2980.582 416.392 2978.097 411.423 2973.502 409.89 Z" style="fill: rgb(255, 215, 0); fill-opacity: 0.34;"/>
  <g transform="matrix(0.976564, 0, 0, 0.976564, 2804.059326, 71.72155)" style="">
    <g>
      <path d="M146.562,427.125c-4.728-1.574-9.798,0.978-11.364,5.68l-8.982,26.947c-1.57,4.706,0.974,9.794,5.68,11.364 c0.943,0.316,1.904,0.465,2.842,0.465c3.763,0,7.268-2.381,8.522-6.145l8.982-26.947 C153.812,433.783,151.268,428.695,146.562,427.125z" style="fill: rgb(0, 87, 183); fill-opacity: 0.34;"/>
    </g>
  </g>
  <g transform="matrix(0.976564, 0, 0, 0.976564, 2804.059326, 71.72155)" style="">
    <g>
      <path d="M290.281,229.511c-4.715-1.588-9.794,0.978-11.364,5.68l-8.982,26.947c-1.57,4.706,0.974,9.794,5.68,11.364 c0.943,0.316,1.904,0.465,2.842,0.465c3.763,0,7.268-2.381,8.522-6.145l8.982-26.947 C297.531,236.169,294.987,231.081,290.281,229.511z" style="fill: rgb(255, 215, 0); fill-opacity: 0.34;"/>
    </g>
  </g>
  <g transform="matrix(0.976564, 0, 0, 0.976564, 2804.059326, 71.72155)" style="">
    <g>
      <path d="M263.333,319.336c-4.724-1.574-9.798,0.978-11.364,5.68l-8.982,26.947c-1.57,4.706,0.974,9.794,5.68,11.364 c0.943,0.316,1.904,0.465,2.842,0.465c3.763,0,7.268-2.382,8.522-6.145l8.982-26.947 C270.583,325.994,268.04,320.906,263.333,319.336z" style="fill: rgb(255, 215, 0); fill-opacity: 0.34;"/>
    </g>
  </g>
  <g transform="matrix(0.976564, 0, 0, 0.976564, 2804.059326, 71.72155)" style="">
    <g>
      <path d="M236.386,400.178c-4.715-1.583-9.794,0.978-11.364,5.68l-8.982,26.947c-1.57,4.706,0.974,9.794,5.68,11.364 c0.943,0.316,1.904,0.465,2.842,0.465c3.763,0,7.268-2.381,8.522-6.145l8.982-26.947 C243.636,406.836,241.092,401.748,236.386,400.178z" style="fill: rgb(0, 87, 183); fill-opacity: 0.34;"/>
    </g>
  </g>
  <g transform="matrix(0.976564, 0, 0, 0.976564, 2804.059326, 71.72155)" style="">
    <g>
      <path d="M353.158,310.353c-4.733-1.574-9.794,0.978-11.364,5.68l-8.982,26.947c-1.57,4.706,0.974,9.794,5.68,11.364 c0.943,0.316,1.904,0.465,2.842,0.465c3.763,0,7.268-2.381,8.522-6.145l8.982-26.947 C360.408,317.011,357.864,311.923,353.158,310.353z" style="fill: rgb(0, 87, 183); fill-opacity: 0.34;"/>
    </g>
  </g>
  <g transform="matrix(0.976564, 0, 0, 0.976564, 2804.059326, 71.72155)" style="">
    <g>
      <path d="M326.211,400.178c-4.724-1.583-9.798,0.978-11.364,5.68l-8.982,26.947c-1.57,4.706,0.974,9.794,5.68,11.364 c0.943,0.316,1.904,0.465,2.842,0.465c3.763,0,7.268-2.381,8.522-6.145l8.982-26.947 C333.461,406.836,330.917,401.748,326.211,400.178z" style="fill: rgb(255, 215, 0); fill-opacity: 0.34;"/>
    </g>
  </g>
  <g transform="matrix(0.976564, 0, 0, 0.976564, 2830.381592, -14.484867)" style="">
    <g>
      <path d="M353.158,310.353c-4.733-1.574-9.794,0.978-11.364,5.68l-8.982,26.947c-1.57,4.706,0.974,9.794,5.68,11.364 c0.943,0.316,1.904,0.465,2.842,0.465c3.763,0,7.268-2.381,8.522-6.145l8.982-26.947 C360.408,317.011,357.864,311.923,353.158,310.353z" style="fill: rgb(0, 87, 183); fill-opacity: 0.34;"/>
    </g>
  </g>
  <g transform="matrix(0.976564, 0, 0, 0.976564, 3050.577393, 71.72155)" style="">
    <g>
      <path d="M200.456,256.458c-4.728-1.574-9.798,0.978-11.364,5.68l-8.982,26.947c-1.57,4.706,0.974,9.794,5.68,11.364 c0.943,0.316,1.904,0.465,2.842,0.465c3.763,0,7.268-2.381,8.522-6.145l8.982-26.947 C207.706,263.116,205.162,258.028,200.456,256.458z" style="fill: rgb(0, 87, 183); fill-opacity: 0.34;"/>
    </g>
  </g>
  <path d="M 3220.02 409.89 C 3215.411 408.344 3210.455 410.845 3208.922 415.437 L 3200.151 441.752 C 3198.617 446.348 3201.102 451.317 3205.697 452.85 C 3206.618 453.158 3207.557 453.304 3208.473 453.304 C 3212.148 453.304 3215.57 450.979 3216.795 447.303 L 3225.567 420.987 C 3227.1 416.392 3224.615 411.423 3220.02 409.89 Z" style="fill: rgb(255, 215, 0); fill-opacity: 0.34;"/>
  <g transform="matrix(0.976564, 0, 0, 0.976564, 3050.577393, 71.72155)" style="">
    <g>
      <path d="M146.562,427.125c-4.728-1.574-9.798,0.978-11.364,5.68l-8.982,26.947c-1.57,4.706,0.974,9.794,5.68,11.364 c0.943,0.316,1.904,0.465,2.842,0.465c3.763,0,7.268-2.381,8.522-6.145l8.982-26.947 C153.812,433.783,151.268,428.695,146.562,427.125z" style="fill: rgb(0, 87, 183); fill-opacity: 0.34;"/>
    </g>
  </g>
  <g transform="matrix(0.976564, 0, 0, 0.976564, 3050.577393, 71.72155)" style="">
    <g>
      <path d="M290.281,229.511c-4.715-1.588-9.794,0.978-11.364,5.68l-8.982,26.947c-1.57,4.706,0.974,9.794,5.68,11.364 c0.943,0.316,1.904,0.465,2.842,0.465c3.763,0,7.268-2.381,8.522-6.145l8.982-26.947 C297.531,236.169,294.987,231.081,290.281,229.511z" style="fill: rgb(255, 215, 0); fill-opacity: 0.34;"/>
    </g>
  </g>
  <g transform="matrix(0.976564, 0, 0, 0.976564, 3050.577393, 71.72155)" style="">
    <g>
      <path d="M263.333,319.336c-4.724-1.574-9.798,0.978-11.364,5.68l-8.982,26.947c-1.57,4.706,0.974,9.794,5.68,11.364 c0.943,0.316,1.904,0.465,2.842,0.465c3.763,0,7.268-2.382,8.522-6.145l8.982-26.947 C270.583,325.994,268.04,320.906,263.333,319.336z" style="fill: rgb(255, 215, 0); fill-opacity: 0.34;"/>
    </g>
  </g>
  <g transform="matrix(0.976564, 0, 0, 0.976564, 3050.577393, 71.72155)" style="">
    <g>
      <path d="M236.386,400.178c-4.715-1.583-9.794,0.978-11.364,5.68l-8.982,26.947c-1.57,4.706,0.974,9.794,5.68,11.364 c0.943,0.316,1.904,0.465,2.842,0.465c3.763,0,7.268-2.381,8.522-6.145l8.982-26.947 C243.636,406.836,241.092,401.748,236.386,400.178z" style="fill: rgb(0, 87, 183); fill-opacity: 0.34;"/>
    </g>
  </g>
  <g transform="matrix(0.976564, 0, 0, 0.976564, 3050.577393, 71.72155)" style="">
    <g>
      <path d="M353.158,310.353c-4.733-1.574-9.794,0.978-11.364,5.68l-8.982,26.947c-1.57,4.706,0.974,9.794,5.68,11.364 c0.943,0.316,1.904,0.465,2.842,0.465c3.763,0,7.268-2.381,8.522-6.145l8.982-26.947 C360.408,317.011,357.864,311.923,353.158,310.353z" style="fill: rgb(0, 87, 183); fill-opacity: 0.34;"/>
    </g>
  </g>
  <g transform="matrix(0.976564, 0, 0, 0.976564, 3050.577393, 71.72155)" style="">
    <g>
      <path d="M326.211,400.178c-4.724-1.583-9.798,0.978-11.364,5.68l-8.982,26.947c-1.57,4.706,0.974,9.794,5.68,11.364 c0.943,0.316,1.904,0.465,2.842,0.465c3.763,0,7.268-2.381,8.522-6.145l8.982-26.947 C333.461,406.836,330.917,401.748,326.211,400.178z" style="fill: rgb(255, 215, 0); fill-opacity: 0.34;"/>
    </g>
  </g>
  <g transform="matrix(0.976564, 0, 0, 0.976564, 3076.899658, -14.484867)" style="">
    <g>
      <path d="M353.158,310.353c-4.733-1.574-9.794,0.978-11.364,5.68l-8.982,26.947c-1.57,4.706,0.974,9.794,5.68,11.364 c0.943,0.316,1.904,0.465,2.842,0.465c3.763,0,7.268-2.381,8.522-6.145l8.982-26.947 C360.408,317.011,357.864,311.923,353.158,310.353z" style="fill: rgb(0, 87, 183); fill-opacity: 0.34;"/>
    </g>
  </g>
  <g transform="matrix(0.976564, 0, 0, 0.976564, 1309.848633, 73.239403)" style="">
    <g>
      <path d="M200.456,256.458c-4.728-1.574-9.798,0.978-11.364,5.68l-8.982,26.947c-1.57,4.706,0.974,9.794,5.68,11.364 c0.943,0.316,1.904,0.465,2.842,0.465c3.763,0,7.268-2.381,8.522-6.145l8.982-26.947 C207.706,263.116,205.162,258.028,200.456,256.458z" style="fill: rgb(0, 87, 183); fill-opacity: 0.34;"/>
    </g>
  </g>
  <path d="M 1479.291 411.407 C 1474.682 409.861 1469.726 412.362 1468.193 416.954 L 1459.422 443.269 C 1457.888 447.865 1460.373 452.834 1464.968 454.367 C 1465.889 454.675 1466.828 454.821 1467.744 454.821 C 1471.419 454.821 1474.841 452.496 1476.066 448.82 L 1484.838 422.504 C 1486.371 417.909 1483.886 412.94 1479.291 411.407 Z" style="fill: rgb(255, 215, 0); fill-opacity: 0.34;"/>
  <g transform="matrix(0.976564, 0, 0, 0.976564, 1309.848633, 73.239403)" style="">
    <g>
      <path d="M146.562,427.125c-4.728-1.574-9.798,0.978-11.364,5.68l-8.982,26.947c-1.57,4.706,0.974,9.794,5.68,11.364 c0.943,0.316,1.904,0.465,2.842,0.465c3.763,0,7.268-2.381,8.522-6.145l8.982-26.947 C153.812,433.783,151.268,428.695,146.562,427.125z" style="fill: rgb(0, 87, 183); fill-opacity: 0.34;"/>
    </g>
  </g>
  <g transform="matrix(0.976564, 0, 0, 0.976564, 1309.848633, 73.239403)" style="">
    <g>
      <path d="M290.281,229.511c-4.715-1.588-9.794,0.978-11.364,5.68l-8.982,26.947c-1.57,4.706,0.974,9.794,5.68,11.364 c0.943,0.316,1.904,0.465,2.842,0.465c3.763,0,7.268-2.381,8.522-6.145l8.982-26.947 C297.531,236.169,294.987,231.081,290.281,229.511z" style="fill: rgb(255, 215, 0); fill-opacity: 0.34;"/>
    </g>
  </g>
  <g transform="matrix(0.976564, 0, 0, 0.976564, 1309.848633, 73.239403)" style="">
    <g>
      <path d="M263.333,319.336c-4.724-1.574-9.798,0.978-11.364,5.68l-8.982,26.947c-1.57,4.706,0.974,9.794,5.68,11.364 c0.943,0.316,1.904,0.465,2.842,0.465c3.763,0,7.268-2.382,8.522-6.145l8.982-26.947 C270.583,325.994,268.04,320.906,263.333,319.336z" style="fill: rgb(255, 215, 0); fill-opacity: 0.34;"/>
    </g>
  </g>
  <g transform="matrix(0.976564, 0, 0, 0.976564, 1309.848633, 73.239403)" style="">
    <g>
      <path d="M236.386,400.178c-4.715-1.583-9.794,0.978-11.364,5.68l-8.982,26.947c-1.57,4.706,0.974,9.794,5.68,11.364 c0.943,0.316,1.904,0.465,2.842,0.465c3.763,0,7.268-2.381,8.522-6.145l8.982-26.947 C243.636,406.836,241.092,401.748,236.386,400.178z" style="fill: rgb(0, 87, 183); fill-opacity: 0.34;"/>
    </g>
  </g>
  <g transform="matrix(0.976564, 0, 0, 0.976564, 1309.848633, 73.239403)" style="">
    <g>
      <path d="M353.158,310.353c-4.733-1.574-9.794,0.978-11.364,5.68l-8.982,26.947c-1.57,4.706,0.974,9.794,5.68,11.364 c0.943,0.316,1.904,0.465,2.842,0.465c3.763,0,7.268-2.381,8.522-6.145l8.982-26.947 C360.408,317.011,357.864,311.923,353.158,310.353z" style="fill: rgb(0, 87, 183); fill-opacity: 0.34;"/>
    </g>
  </g>
  <g transform="matrix(0.976564, 0, 0, 0.976564, 1309.848633, 73.239403)" style="">
    <g>
      <path d="M326.211,400.178c-4.724-1.583-9.798,0.978-11.364,5.68l-8.982,26.947c-1.57,4.706,0.974,9.794,5.68,11.364 c0.943,0.316,1.904,0.465,2.842,0.465c3.763,0,7.268-2.381,8.522-6.145l8.982-26.947 C333.461,406.836,330.917,401.748,326.211,400.178z" style="fill: rgb(255, 215, 0); fill-opacity: 0.34;"/>
    </g>
  </g>
  <g transform="matrix(0.976564, 0, 0, 0.976564, 1336.170898, -12.966984)" style="">
    <g>
      <path d="M353.158,310.353c-4.733-1.574-9.794,0.978-11.364,5.68l-8.982,26.947c-1.57,4.706,0.974,9.794,5.68,11.364 c0.943,0.316,1.904,0.465,2.842,0.465c3.763,0,7.268-2.381,8.522-6.145l8.982-26.947 C360.408,317.011,357.864,311.923,353.158,310.353z" style="fill: rgb(0, 87, 183); fill-opacity: 0.34;"/>
    </g>
  </g>
  <g transform="matrix(0.976564, 0, 0, 0.976564, 1561.587646, 73.510338)" style="">
    <g>
      <path d="M200.456,256.458c-4.728-1.574-9.798,0.978-11.364,5.68l-8.982,26.947c-1.57,4.706,0.974,9.794,5.68,11.364 c0.943,0.316,1.904,0.465,2.842,0.465c3.763,0,7.268-2.381,8.522-6.145l8.982-26.947 C207.706,263.116,205.162,258.028,200.456,256.458z" style="fill: rgb(0, 87, 183); fill-opacity: 0.34;"/>
    </g>
  </g>
  <path d="M 1731.03 411.678 C 1726.421 410.132 1721.465 412.633 1719.932 417.225 L 1711.161 443.54 C 1709.627 448.136 1712.112 453.105 1716.707 454.638 C 1717.628 454.946 1718.567 455.092 1719.483 455.092 C 1723.158 455.092 1726.58 452.767 1727.805 449.091 L 1736.577 422.775 C 1738.11 418.18 1735.625 413.211 1731.03 411.678 Z" style="fill: rgb(255, 215, 0); fill-opacity: 0.34;"/>
  <g transform="matrix(0.976564, 0, 0, 0.976564, 1561.587646, 73.510338)" style="">
    <g>
      <path d="M146.562,427.125c-4.728-1.574-9.798,0.978-11.364,5.68l-8.982,26.947c-1.57,4.706,0.974,9.794,5.68,11.364 c0.943,0.316,1.904,0.465,2.842,0.465c3.763,0,7.268-2.381,8.522-6.145l8.982-26.947 C153.812,433.783,151.268,428.695,146.562,427.125z" style="fill: rgb(0, 87, 183); fill-opacity: 0.34;"/>
    </g>
  </g>
  <g transform="matrix(0.976564, 0, 0, 0.976564, 1561.587646, 73.510338)" style="">
    <g>
      <path d="M290.281,229.511c-4.715-1.588-9.794,0.978-11.364,5.68l-8.982,26.947c-1.57,4.706,0.974,9.794,5.68,11.364 c0.943,0.316,1.904,0.465,2.842,0.465c3.763,0,7.268-2.381,8.522-6.145l8.982-26.947 C297.531,236.169,294.987,231.081,290.281,229.511z" style="fill: rgb(255, 215, 0); fill-opacity: 0.34;"/>
    </g>
  </g>
  <g transform="matrix(0.976564, 0, 0, 0.976564, 1561.587646, 73.510338)" style="">
    <g>
      <path d="M263.333,319.336c-4.724-1.574-9.798,0.978-11.364,5.68l-8.982,26.947c-1.57,4.706,0.974,9.794,5.68,11.364 c0.943,0.316,1.904,0.465,2.842,0.465c3.763,0,7.268-2.382,8.522-6.145l8.982-26.947 C270.583,325.994,268.04,320.906,263.333,319.336z" style="fill: rgb(255, 215, 0); fill-opacity: 0.34;"/>
    </g>
  </g>
  <g transform="matrix(0.976564, 0, 0, 0.976564, 1561.587646, 73.510338)" style="">
    <g>
      <path d="M236.386,400.178c-4.715-1.583-9.794,0.978-11.364,5.68l-8.982,26.947c-1.57,4.706,0.974,9.794,5.68,11.364 c0.943,0.316,1.904,0.465,2.842,0.465c3.763,0,7.268-2.381,8.522-6.145l8.982-26.947 C243.636,406.836,241.092,401.748,236.386,400.178z" style="fill: rgb(0, 87, 183); fill-opacity: 0.34;"/>
    </g>
  </g>
  <g transform="matrix(0.976564, 0, 0, 0.976564, 1561.587646, 73.510338)" style="">
    <g>
      <path d="M353.158,310.353c-4.733-1.574-9.794,0.978-11.364,5.68l-8.982,26.947c-1.57,4.706,0.974,9.794,5.68,11.364 c0.943,0.316,1.904,0.465,2.842,0.465c3.763,0,7.268-2.381,8.522-6.145l8.982-26.947 C360.408,317.011,357.864,311.923,353.158,310.353z" style="fill: rgb(0, 87, 183); fill-opacity: 0.34;"/>
    </g>
  </g>
  <g transform="matrix(0.976564, 0, 0, 0.976564, 1561.587646, 73.510338)" style="">
    <g>
      <path d="M326.211,400.178c-4.724-1.583-9.798,0.978-11.364,5.68l-8.982,26.947c-1.57,4.706,0.974,9.794,5.68,11.364 c0.943,0.316,1.904,0.465,2.842,0.465c3.763,0,7.268-2.381,8.522-6.145l8.982-26.947 C333.461,406.836,330.917,401.748,326.211,400.178z" style="fill: rgb(255, 215, 0); fill-opacity: 0.34;"/>
    </g>
  </g>
  <g transform="matrix(0.976564, 0, 0, 0.976564, 1587.90979, -12.696079)" style="">
    <g>
      <path d="M353.158,310.353c-4.733-1.574-9.794,0.978-11.364,5.68l-8.982,26.947c-1.57,4.706,0.974,9.794,5.68,11.364 c0.943,0.316,1.904,0.465,2.842,0.465c3.763,0,7.268-2.381,8.522-6.145l8.982-26.947 C360.408,317.011,357.864,311.923,353.158,310.353z" style="fill: rgb(0, 87, 183); fill-opacity: 0.34;"/>
    </g>
  </g>
  <g transform="matrix(0.976564, 0, 0, 0.976564, 1809.771606, 73.534996)" style="">
    <g>
      <path d="M200.456,256.458c-4.728-1.574-9.798,0.978-11.364,5.68l-8.982,26.947c-1.57,4.706,0.974,9.794,5.68,11.364 c0.943,0.316,1.904,0.465,2.842,0.465c3.763,0,7.268-2.381,8.522-6.145l8.982-26.947 C207.706,263.116,205.162,258.028,200.456,256.458z" style="fill: rgb(0, 87, 183); fill-opacity: 0.34;"/>
    </g>
  </g>
  <path d="M 1979.214 411.703 C 1974.605 410.157 1969.649 412.658 1968.116 417.25 L 1959.345 443.565 C 1957.811 448.161 1960.296 453.13 1964.891 454.663 C 1965.812 454.971 1966.751 455.117 1967.667 455.117 C 1971.342 455.117 1974.764 452.792 1975.989 449.116 L 1984.761 422.8 C 1986.294 418.205 1983.809 413.236 1979.214 411.703 Z" style="fill: rgb(255, 215, 0); fill-opacity: 0.34;"/>
  <g transform="matrix(0.976564, 0, 0, 0.976564, 1809.771606, 73.534996)" style="">
    <g>
      <path d="M146.562,427.125c-4.728-1.574-9.798,0.978-11.364,5.68l-8.982,26.947c-1.57,4.706,0.974,9.794,5.68,11.364 c0.943,0.316,1.904,0.465,2.842,0.465c3.763,0,7.268-2.381,8.522-6.145l8.982-26.947 C153.812,433.783,151.268,428.695,146.562,427.125z" style="fill: rgb(0, 87, 183); fill-opacity: 0.34;"/>
    </g>
  </g>
  <g transform="matrix(0.976564, 0, 0, 0.976564, 1809.771606, 73.534996)" style="">
    <g>
      <path d="M290.281,229.511c-4.715-1.588-9.794,0.978-11.364,5.68l-8.982,26.947c-1.57,4.706,0.974,9.794,5.68,11.364 c0.943,0.316,1.904,0.465,2.842,0.465c3.763,0,7.268-2.381,8.522-6.145l8.982-26.947 C297.531,236.169,294.987,231.081,290.281,229.511z" style="fill: rgb(255, 215, 0); fill-opacity: 0.34;"/>
    </g>
  </g>
  <g transform="matrix(0.976564, 0, 0, 0.976564, 1809.771606, 73.534996)" style="">
    <g>
      <path d="M263.333,319.336c-4.724-1.574-9.798,0.978-11.364,5.68l-8.982,26.947c-1.57,4.706,0.974,9.794,5.68,11.364 c0.943,0.316,1.904,0.465,2.842,0.465c3.763,0,7.268-2.382,8.522-6.145l8.982-26.947 C270.583,325.994,268.04,320.906,263.333,319.336z" style="fill: rgb(255, 215, 0); fill-opacity: 0.34;"/>
    </g>
  </g>
  <g transform="matrix(0.976564, 0, 0, 0.976564, 1809.771606, 73.534996)" style="">
    <g>
      <path d="M236.386,400.178c-4.715-1.583-9.794,0.978-11.364,5.68l-8.982,26.947c-1.57,4.706,0.974,9.794,5.68,11.364 c0.943,0.316,1.904,0.465,2.842,0.465c3.763,0,7.268-2.381,8.522-6.145l8.982-26.947 C243.636,406.836,241.092,401.748,236.386,400.178z" style="fill: rgb(0, 87, 183); fill-opacity: 0.34;"/>
    </g>
  </g>
  <g transform="matrix(0.976564, 0, 0, 0.976564, 1809.771606, 73.534996)" style="">
    <g>
      <path d="M353.158,310.353c-4.733-1.574-9.794,0.978-11.364,5.68l-8.982,26.947c-1.57,4.706,0.974,9.794,5.68,11.364 c0.943,0.316,1.904,0.465,2.842,0.465c3.763,0,7.268-2.381,8.522-6.145l8.982-26.947 C360.408,317.011,357.864,311.923,353.158,310.353z" style="fill: rgb(0, 87, 183); fill-opacity: 0.34;"/>
    </g>
  </g>
  <g transform="matrix(0.976564, 0, 0, 0.976564, 1809.771606, 73.534996)" style="">
    <g>
      <path d="M326.211,400.178c-4.724-1.583-9.798,0.978-11.364,5.68l-8.982,26.947c-1.57,4.706,0.974,9.794,5.68,11.364 c0.943,0.316,1.904,0.465,2.842,0.465c3.763,0,7.268-2.381,8.522-6.145l8.982-26.947 C333.461,406.836,330.917,401.748,326.211,400.178z" style="fill: rgb(255, 215, 0); fill-opacity: 0.34;"/>
    </g>
  </g>
  <g transform="matrix(0.976564, 0, 0, 0.976564, 1836.093872, -12.671421)" style="">
    <g>
      <path d="M353.158,310.353c-4.733-1.574-9.794,0.978-11.364,5.68l-8.982,26.947c-1.57,4.706,0.974,9.794,5.68,11.364 c0.943,0.316,1.904,0.465,2.842,0.465c3.763,0,7.268-2.381,8.522-6.145l8.982-26.947 C360.408,317.011,357.864,311.923,353.158,310.353z" style="fill: rgb(0, 87, 183); fill-opacity: 0.34;"/>
    </g>
  </g>
  <g transform="matrix(0.976564, 0, 0, 0.976564, 2056.290039, 73.534996)" style="">
    <g>
      <path d="M200.456,256.458c-4.728-1.574-9.798,0.978-11.364,5.68l-8.982,26.947c-1.57,4.706,0.974,9.794,5.68,11.364 c0.943,0.316,1.904,0.465,2.842,0.465c3.763,0,7.268-2.381,8.522-6.145l8.982-26.947 C207.706,263.116,205.162,258.028,200.456,256.458z" style="fill: rgb(0, 87, 183); fill-opacity: 0.34;"/>
    </g>
  </g>
  <path d="M 2225.732 411.703 C 2221.123 410.157 2216.167 412.658 2214.634 417.25 L 2205.863 443.565 C 2204.329 448.161 2206.814 453.13 2211.409 454.663 C 2212.33 454.971 2213.269 455.117 2214.185 455.117 C 2217.86 455.117 2221.282 452.792 2222.507 449.116 L 2231.279 422.8 C 2232.812 418.205 2230.327 413.236 2225.732 411.703 Z" style="fill: rgb(255, 215, 0); fill-opacity: 0.34;"/>
  <g transform="matrix(0.976564, 0, 0, 0.976564, 2056.290039, 73.534996)" style="">
    <g>
      <path d="M146.562,427.125c-4.728-1.574-9.798,0.978-11.364,5.68l-8.982,26.947c-1.57,4.706,0.974,9.794,5.68,11.364 c0.943,0.316,1.904,0.465,2.842,0.465c3.763,0,7.268-2.381,8.522-6.145l8.982-26.947 C153.812,433.783,151.268,428.695,146.562,427.125z" style="fill: rgb(0, 87, 183); fill-opacity: 0.34;"/>
    </g>
  </g>
  <g transform="matrix(0.976564, 0, 0, 0.976564, 2056.290039, 73.534996)" style="">
    <g>
      <path d="M290.281,229.511c-4.715-1.588-9.794,0.978-11.364,5.68l-8.982,26.947c-1.57,4.706,0.974,9.794,5.68,11.364 c0.943,0.316,1.904,0.465,2.842,0.465c3.763,0,7.268-2.381,8.522-6.145l8.982-26.947 C297.531,236.169,294.987,231.081,290.281,229.511z" style="fill: rgb(255, 215, 0); fill-opacity: 0.34;"/>
    </g>
  </g>
  <g transform="matrix(0.976564, 0, 0, 0.976564, 2056.290039, 73.534996)" style="">
    <g>
      <path d="M263.333,319.336c-4.724-1.574-9.798,0.978-11.364,5.68l-8.982,26.947c-1.57,4.706,0.974,9.794,5.68,11.364 c0.943,0.316,1.904,0.465,2.842,0.465c3.763,0,7.268-2.382,8.522-6.145l8.982-26.947 C270.583,325.994,268.04,320.906,263.333,319.336z" style="fill: rgb(255, 215, 0); fill-opacity: 0.34;"/>
    </g>
  </g>
  <g transform="matrix(0.976564, 0, 0, 0.976564, 2056.290039, 73.534996)" style="">
    <g>
      <path d="M236.386,400.178c-4.715-1.583-9.794,0.978-11.364,5.68l-8.982,26.947c-1.57,4.706,0.974,9.794,5.68,11.364 c0.943,0.316,1.904,0.465,2.842,0.465c3.763,0,7.268-2.381,8.522-6.145l8.982-26.947 C243.636,406.836,241.092,401.748,236.386,400.178z" style="fill: rgb(0, 87, 183); fill-opacity: 0.34;"/>
    </g>
  </g>
  <g transform="matrix(0.976564, 0, 0, 0.976564, 2056.290039, 73.534996)" style="">
    <g>
      <path d="M353.158,310.353c-4.733-1.574-9.794,0.978-11.364,5.68l-8.982,26.947c-1.57,4.706,0.974,9.794,5.68,11.364 c0.943,0.316,1.904,0.465,2.842,0.465c3.763,0,7.268-2.381,8.522-6.145l8.982-26.947 C360.408,317.011,357.864,311.923,353.158,310.353z" style="fill: rgb(0, 87, 183); fill-opacity: 0.34;"/>
    </g>
  </g>
  <g transform="matrix(0.976564, 0, 0, 0.976564, 2056.290039, 73.534996)" style="">
    <g>
      <path d="M326.211,400.178c-4.724-1.583-9.798,0.978-11.364,5.68l-8.982,26.947c-1.57,4.706,0.974,9.794,5.68,11.364 c0.943,0.316,1.904,0.465,2.842,0.465c3.763,0,7.268-2.381,8.522-6.145l8.982-26.947 C333.461,406.836,330.917,401.748,326.211,400.178z" style="fill: rgb(255, 215, 0); fill-opacity: 0.34;"/>
    </g>
  </g>
  <g transform="matrix(0.976564, 0, 0, 0.976564, 2082.612061, -12.671421)" style="">
    <g>
      <path d="M353.158,310.353c-4.733-1.574-9.794,0.978-11.364,5.68l-8.982,26.947c-1.57,4.706,0.974,9.794,5.68,11.364 c0.943,0.316,1.904,0.465,2.842,0.465c3.763,0,7.268-2.381,8.522-6.145l8.982-26.947 C360.408,317.011,357.864,311.923,353.158,310.353z" style="fill: rgb(0, 87, 183); fill-opacity: 0.34;"/>
    </g>
  </g>
  <g transform="matrix(0.976564, 0, 0, 0.976564, 311.90448, 71.778801)" style="">
    <g>
      <path d="M200.456,256.458c-4.728-1.574-9.798,0.978-11.364,5.68l-8.982,26.947c-1.57,4.706,0.974,9.794,5.68,11.364 c0.943,0.316,1.904,0.465,2.842,0.465c3.763,0,7.268-2.381,8.522-6.145l8.982-26.947 C207.706,263.116,205.162,258.028,200.456,256.458z" style="fill: rgb(0, 87, 183); fill-opacity: 0.34;"/>
    </g>
  </g>
  <path d="M 481.347 409.947 C 476.738 408.401 471.782 410.902 470.249 415.494 L 461.478 441.809 C 459.944 446.405 462.429 451.374 467.024 452.907 C 467.945 453.215 468.884 453.361 469.8 453.361 C 473.475 453.361 476.897 451.036 478.122 447.36 L 486.894 421.044 C 488.427 416.449 485.942 411.48 481.347 409.947 Z" style="fill: rgb(255, 215, 0); fill-opacity: 0.34;"/>
  <g transform="matrix(0.976564, 0, 0, 0.976564, 311.90448, 71.778801)" style="">
    <g>
      <path d="M146.562,427.125c-4.728-1.574-9.798,0.978-11.364,5.68l-8.982,26.947c-1.57,4.706,0.974,9.794,5.68,11.364 c0.943,0.316,1.904,0.465,2.842,0.465c3.763,0,7.268-2.381,8.522-6.145l8.982-26.947 C153.812,433.783,151.268,428.695,146.562,427.125z" style="fill: rgb(0, 87, 183); fill-opacity: 0.34;"/>
    </g>
  </g>
  <g transform="matrix(0.976564, 0, 0, 0.976564, 311.90448, 71.778801)" style="">
    <g>
      <path d="M290.281,229.511c-4.715-1.588-9.794,0.978-11.364,5.68l-8.982,26.947c-1.57,4.706,0.974,9.794,5.68,11.364 c0.943,0.316,1.904,0.465,2.842,0.465c3.763,0,7.268-2.381,8.522-6.145l8.982-26.947 C297.531,236.169,294.987,231.081,290.281,229.511z" style="fill: rgb(255, 215, 0); fill-opacity: 0.34;"/>
    </g>
  </g>
  <g transform="matrix(0.976564, 0, 0, 0.976564, 311.90448, 71.778801)" style="">
    <g>
      <path d="M263.333,319.336c-4.724-1.574-9.798,0.978-11.364,5.68l-8.982,26.947c-1.57,4.706,0.974,9.794,5.68,11.364 c0.943,0.316,1.904,0.465,2.842,0.465c3.763,0,7.268-2.382,8.522-6.145l8.982-26.947 C270.583,325.994,268.04,320.906,263.333,319.336z" style="fill: rgb(255, 215, 0); fill-opacity: 0.34;"/>
    </g>
  </g>
  <g transform="matrix(0.976564, 0, 0, 0.976564, 311.90448, 71.778801)" style="">
    <g>
      <path d="M236.386,400.178c-4.715-1.583-9.794,0.978-11.364,5.68l-8.982,26.947c-1.57,4.706,0.974,9.794,5.68,11.364 c0.943,0.316,1.904,0.465,2.842,0.465c3.763,0,7.268-2.381,8.522-6.145l8.982-26.947 C243.636,406.836,241.092,401.748,236.386,400.178z" style="fill: rgb(0, 87, 183); fill-opacity: 0.34;"/>
    </g>
  </g>
  <g transform="matrix(0.976564, 0, 0, 0.976564, 311.90448, 71.778801)" style="">
    <g>
      <path d="M353.158,310.353c-4.733-1.574-9.794,0.978-11.364,5.68l-8.982,26.947c-1.57,4.706,0.974,9.794,5.68,11.364 c0.943,0.316,1.904,0.465,2.842,0.465c3.763,0,7.268-2.381,8.522-6.145l8.982-26.947 C360.408,317.011,357.864,311.923,353.158,310.353z" style="fill: rgb(0, 87, 183); fill-opacity: 0.34;"/>
    </g>
  </g>
  <g transform="matrix(0.976564, 0, 0, 0.976564, 311.90448, 71.778801)" style="">
    <g>
      <path d="M326.211,400.178c-4.724-1.583-9.798,0.978-11.364,5.68l-8.982,26.947c-1.57,4.706,0.974,9.794,5.68,11.364 c0.943,0.316,1.904,0.465,2.842,0.465c3.763,0,7.268-2.381,8.522-6.145l8.982-26.947 C333.461,406.836,330.917,401.748,326.211,400.178z" style="fill: rgb(255, 215, 0); fill-opacity: 0.34;"/>
    </g>
  </g>
  <g transform="matrix(0.976564, 0, 0, 0.976564, 338.226746, -14.427586)" style="">
    <g>
      <path d="M353.158,310.353c-4.733-1.574-9.794,0.978-11.364,5.68l-8.982,26.947c-1.57,4.706,0.974,9.794,5.68,11.364 c0.943,0.316,1.904,0.465,2.842,0.465c3.763,0,7.268-2.381,8.522-6.145l8.982-26.947 C360.408,317.011,357.864,311.923,353.158,310.353z" style="fill: rgb(0, 87, 183); fill-opacity: 0.34;"/>
    </g>
  </g>
  <g transform="matrix(0.976564, 0, 0, 0.976564, 563.643494, 72.049736)" style="">
    <g>
      <path d="M200.456,256.458c-4.728-1.574-9.798,0.978-11.364,5.68l-8.982,26.947c-1.57,4.706,0.974,9.794,5.68,11.364 c0.943,0.316,1.904,0.465,2.842,0.465c3.763,0,7.268-2.381,8.522-6.145l8.982-26.947 C207.706,263.116,205.162,258.028,200.456,256.458z" style="fill: rgb(0, 87, 183); fill-opacity: 0.34;"/>
    </g>
  </g>
  <path d="M 733.086 410.218 C 728.477 408.672 723.521 411.173 721.988 415.765 L 713.217 442.08 C 711.683 446.676 714.168 451.645 718.763 453.178 C 719.684 453.486 720.623 453.632 721.539 453.632 C 725.214 453.632 728.636 451.307 729.861 447.631 L 738.633 421.315 C 740.166 416.72 737.681 411.751 733.086 410.218 Z" style="fill: rgb(255, 215, 0); fill-opacity: 0.34;"/>
  <g transform="matrix(0.976564, 0, 0, 0.976564, 563.643494, 72.049736)" style="">
    <g>
      <path d="M146.562,427.125c-4.728-1.574-9.798,0.978-11.364,5.68l-8.982,26.947c-1.57,4.706,0.974,9.794,5.68,11.364 c0.943,0.316,1.904,0.465,2.842,0.465c3.763,0,7.268-2.381,8.522-6.145l8.982-26.947 C153.812,433.783,151.268,428.695,146.562,427.125z" style="fill: rgb(0, 87, 183); fill-opacity: 0.34;"/>
    </g>
  </g>
  <g transform="matrix(0.976564, 0, 0, 0.976564, 563.643494, 72.049736)" style="">
    <g>
      <path d="M290.281,229.511c-4.715-1.588-9.794,0.978-11.364,5.68l-8.982,26.947c-1.57,4.706,0.974,9.794,5.68,11.364 c0.943,0.316,1.904,0.465,2.842,0.465c3.763,0,7.268-2.381,8.522-6.145l8.982-26.947 C297.531,236.169,294.987,231.081,290.281,229.511z" style="fill: rgb(255, 215, 0); fill-opacity: 0.34;"/>
    </g>
  </g>
  <g transform="matrix(0.976564, 0, 0, 0.976564, 563.643494, 72.049736)" style="">
    <g>
      <path d="M263.333,319.336c-4.724-1.574-9.798,0.978-11.364,5.68l-8.982,26.947c-1.57,4.706,0.974,9.794,5.68,11.364 c0.943,0.316,1.904,0.465,2.842,0.465c3.763,0,7.268-2.382,8.522-6.145l8.982-26.947 C270.583,325.994,268.04,320.906,263.333,319.336z" style="fill: rgb(255, 215, 0); fill-opacity: 0.34;"/>
    </g>
  </g>
  <g transform="matrix(0.976564, 0, 0, 0.976564, 563.643494, 72.049736)" style="">
    <g>
      <path d="M236.386,400.178c-4.715-1.583-9.794,0.978-11.364,5.68l-8.982,26.947c-1.57,4.706,0.974,9.794,5.68,11.364 c0.943,0.316,1.904,0.465,2.842,0.465c3.763,0,7.268-2.381,8.522-6.145l8.982-26.947 C243.636,406.836,241.092,401.748,236.386,400.178z" style="fill: rgb(0, 87, 183); fill-opacity: 0.34;"/>
    </g>
  </g>
  <g transform="matrix(0.976564, 0, 0, 0.976564, 563.643494, 72.049736)" style="">
    <g>
      <path d="M353.158,310.353c-4.733-1.574-9.794,0.978-11.364,5.68l-8.982,26.947c-1.57,4.706,0.974,9.794,5.68,11.364 c0.943,0.316,1.904,0.465,2.842,0.465c3.763,0,7.268-2.381,8.522-6.145l8.982-26.947 C360.408,317.011,357.864,311.923,353.158,310.353z" style="fill: rgb(0, 87, 183); fill-opacity: 0.34;"/>
    </g>
  </g>
  <g transform="matrix(0.976564, 0, 0, 0.976564, 563.643494, 72.049736)" style="">
    <g>
      <path d="M326.211,400.178c-4.724-1.583-9.798,0.978-11.364,5.68l-8.982,26.947c-1.57,4.706,0.974,9.794,5.68,11.364 c0.943,0.316,1.904,0.465,2.842,0.465c3.763,0,7.268-2.381,8.522-6.145l8.982-26.947 C333.461,406.836,330.917,401.748,326.211,400.178z" style="fill: rgb(255, 215, 0); fill-opacity: 0.34;"/>
    </g>
  </g>
  <g transform="matrix(0.976564, 0, 0, 0.976564, 589.965759, -14.156651)" style="">
    <g>
      <path d="M353.158,310.353c-4.733-1.574-9.794,0.978-11.364,5.68l-8.982,26.947c-1.57,4.706,0.974,9.794,5.68,11.364 c0.943,0.316,1.904,0.465,2.842,0.465c3.763,0,7.268-2.381,8.522-6.145l8.982-26.947 C360.408,317.011,357.864,311.923,353.158,310.353z" style="fill: rgb(0, 87, 183); fill-opacity: 0.34;"/>
    </g>
  </g>
  <g transform="matrix(0.976564, 0, 0, 0.976564, 811.827576, 72.074394)" style="">
    <g>
      <path d="M200.456,256.458c-4.728-1.574-9.798,0.978-11.364,5.68l-8.982,26.947c-1.57,4.706,0.974,9.794,5.68,11.364 c0.943,0.316,1.904,0.465,2.842,0.465c3.763,0,7.268-2.381,8.522-6.145l8.982-26.947 C207.706,263.116,205.162,258.028,200.456,256.458z" style="fill: rgb(0, 87, 183); fill-opacity: 0.34;"/>
    </g>
  </g>
  <path d="M 981.27 410.243 C 976.661 408.697 971.705 411.198 970.172 415.79 L 961.401 442.105 C 959.867 446.701 962.352 451.67 966.947 453.203 C 967.868 453.511 968.807 453.657 969.723 453.657 C 973.398 453.657 976.82 451.332 978.045 447.656 L 986.817 421.34 C 988.35 416.745 985.865 411.776 981.27 410.243 Z" style="fill: rgb(255, 215, 0); fill-opacity: 0.34;"/>
  <g transform="matrix(0.976564, 0, 0, 0.976564, 811.827576, 72.074394)" style="">
    <g>
      <path d="M146.562,427.125c-4.728-1.574-9.798,0.978-11.364,5.68l-8.982,26.947c-1.57,4.706,0.974,9.794,5.68,11.364 c0.943,0.316,1.904,0.465,2.842,0.465c3.763,0,7.268-2.381,8.522-6.145l8.982-26.947 C153.812,433.783,151.268,428.695,146.562,427.125z" style="fill: rgb(0, 87, 183); fill-opacity: 0.34;"/>
    </g>
  </g>
  <g transform="matrix(0.976564, 0, 0, 0.976564, 811.827576, 72.074394)" style="">
    <g>
      <path d="M290.281,229.511c-4.715-1.588-9.794,0.978-11.364,5.68l-8.982,26.947c-1.57,4.706,0.974,9.794,5.68,11.364 c0.943,0.316,1.904,0.465,2.842,0.465c3.763,0,7.268-2.381,8.522-6.145l8.982-26.947 C297.531,236.169,294.987,231.081,290.281,229.511z" style="fill: rgb(255, 215, 0); fill-opacity: 0.34;"/>
    </g>
  </g>
  <g transform="matrix(0.976564, 0, 0, 0.976564, 811.827576, 72.074394)" style="">
    <g>
      <path d="M263.333,319.336c-4.724-1.574-9.798,0.978-11.364,5.68l-8.982,26.947c-1.57,4.706,0.974,9.794,5.68,11.364 c0.943,0.316,1.904,0.465,2.842,0.465c3.763,0,7.268-2.382,8.522-6.145l8.982-26.947 C270.583,325.994,268.04,320.906,263.333,319.336z" style="fill: rgb(255, 215, 0); fill-opacity: 0.34;"/>
    </g>
  </g>
  <g transform="matrix(0.976564, 0, 0, 0.976564, 811.827576, 72.074394)" style="">
    <g>
      <path d="M236.386,400.178c-4.715-1.583-9.794,0.978-11.364,5.68l-8.982,26.947c-1.57,4.706,0.974,9.794,5.68,11.364 c0.943,0.316,1.904,0.465,2.842,0.465c3.763,0,7.268-2.381,8.522-6.145l8.982-26.947 C243.636,406.836,241.092,401.748,236.386,400.178z" style="fill: rgb(0, 87, 183); fill-opacity: 0.34;"/>
    </g>
  </g>
  <g transform="matrix(0.976564, 0, 0, 0.976564, 811.827576, 72.074394)" style="">
    <g>
      <path d="M353.158,310.353c-4.733-1.574-9.794,0.978-11.364,5.68l-8.982,26.947c-1.57,4.706,0.974,9.794,5.68,11.364 c0.943,0.316,1.904,0.465,2.842,0.465c3.763,0,7.268-2.381,8.522-6.145l8.982-26.947 C360.408,317.011,357.864,311.923,353.158,310.353z" style="fill: rgb(0, 87, 183); fill-opacity: 0.34;"/>
    </g>
  </g>
  <g transform="matrix(0.976564, 0, 0, 0.976564, 811.827576, 72.074394)" style="">
    <g>
      <path d="M326.211,400.178c-4.724-1.583-9.798,0.978-11.364,5.68l-8.982,26.947c-1.57,4.706,0.974,9.794,5.68,11.364 c0.943,0.316,1.904,0.465,2.842,0.465c3.763,0,7.268-2.381,8.522-6.145l8.982-26.947 C333.461,406.836,330.917,401.748,326.211,400.178z" style="fill: rgb(255, 215, 0); fill-opacity: 0.34;"/>
    </g>
  </g>
  <g transform="matrix(0.976564, 0, 0, 0.976564, 838.149902, -14.132023)" style="">
    <g>
      <path d="M353.158,310.353c-4.733-1.574-9.794,0.978-11.364,5.68l-8.982,26.947c-1.57,4.706,0.974,9.794,5.68,11.364 c0.943,0.316,1.904,0.465,2.842,0.465c3.763,0,7.268-2.381,8.522-6.145l8.982-26.947 C360.408,317.011,357.864,311.923,353.158,310.353z" style="fill: rgb(0, 87, 183); fill-opacity: 0.34;"/>
    </g>
  </g>
  <g transform="matrix(0.976564, 0, 0, 0.976564, 1058.345703, 72.074394)" style="">
    <g>
      <path d="M200.456,256.458c-4.728-1.574-9.798,0.978-11.364,5.68l-8.982,26.947c-1.57,4.706,0.974,9.794,5.68,11.364 c0.943,0.316,1.904,0.465,2.842,0.465c3.763,0,7.268-2.381,8.522-6.145l8.982-26.947 C207.706,263.116,205.162,258.028,200.456,256.458z" style="fill: rgb(0, 87, 183); fill-opacity: 0.34;"/>
    </g>
  </g>
  <path d="M 1227.788 410.243 C 1223.179 408.697 1218.223 411.198 1216.69 415.79 L 1207.919 442.105 C 1206.385 446.701 1208.87 451.67 1213.465 453.203 C 1214.386 453.511 1215.325 453.657 1216.241 453.657 C 1219.916 453.657 1223.338 451.332 1224.563 447.656 L 1233.335 421.34 C 1234.868 416.745 1232.383 411.776 1227.788 410.243 Z" style="fill: rgb(255, 215, 0); fill-opacity: 0.34;"/>
  <g transform="matrix(0.976564, 0, 0, 0.976564, 1058.345703, 72.074394)" style="">
    <g>
      <path d="M146.562,427.125c-4.728-1.574-9.798,0.978-11.364,5.68l-8.982,26.947c-1.57,4.706,0.974,9.794,5.68,11.364 c0.943,0.316,1.904,0.465,2.842,0.465c3.763,0,7.268-2.381,8.522-6.145l8.982-26.947 C153.812,433.783,151.268,428.695,146.562,427.125z" style="fill: rgb(0, 87, 183); fill-opacity: 0.34;"/>
    </g>
  </g>
  <g transform="matrix(0.976564, 0, 0, 0.976564, 1058.345703, 72.074394)" style="">
    <g>
      <path d="M290.281,229.511c-4.715-1.588-9.794,0.978-11.364,5.68l-8.982,26.947c-1.57,4.706,0.974,9.794,5.68,11.364 c0.943,0.316,1.904,0.465,2.842,0.465c3.763,0,7.268-2.381,8.522-6.145l8.982-26.947 C297.531,236.169,294.987,231.081,290.281,229.511z" style="fill: rgb(255, 215, 0); fill-opacity: 0.34;"/>
    </g>
  </g>
  <g transform="matrix(0.976564, 0, 0, 0.976564, 1058.345703, 72.074394)" style="">
    <g>
      <path d="M263.333,319.336c-4.724-1.574-9.798,0.978-11.364,5.68l-8.982,26.947c-1.57,4.706,0.974,9.794,5.68,11.364 c0.943,0.316,1.904,0.465,2.842,0.465c3.763,0,7.268-2.382,8.522-6.145l8.982-26.947 C270.583,325.994,268.04,320.906,263.333,319.336z" style="fill: rgb(255, 215, 0); fill-opacity: 0.34;"/>
    </g>
  </g>
  <g transform="matrix(0.976564, 0, 0, 0.976564, 1058.345703, 72.074394)" style="">
    <g>
      <path d="M236.386,400.178c-4.715-1.583-9.794,0.978-11.364,5.68l-8.982,26.947c-1.57,4.706,0.974,9.794,5.68,11.364 c0.943,0.316,1.904,0.465,2.842,0.465c3.763,0,7.268-2.381,8.522-6.145l8.982-26.947 C243.636,406.836,241.092,401.748,236.386,400.178z" style="fill: rgb(0, 87, 183); fill-opacity: 0.34;"/>
    </g>
  </g>
  <g transform="matrix(0.976564, 0, 0, 0.976564, 1058.345703, 72.074394)" style="">
    <g>
      <path d="M353.158,310.353c-4.733-1.574-9.794,0.978-11.364,5.68l-8.982,26.947c-1.57,4.706,0.974,9.794,5.68,11.364 c0.943,0.316,1.904,0.465,2.842,0.465c3.763,0,7.268-2.381,8.522-6.145l8.982-26.947 C360.408,317.011,357.864,311.923,353.158,310.353z" style="fill: rgb(0, 87, 183); fill-opacity: 0.34;"/>
    </g>
  </g>
  <g transform="matrix(0.976564, 0, 0, 0.976564, 1058.345703, 72.074394)" style="">
    <g>
      <path d="M326.211,400.178c-4.724-1.583-9.798,0.978-11.364,5.68l-8.982,26.947c-1.57,4.706,0.974,9.794,5.68,11.364 c0.943,0.316,1.904,0.465,2.842,0.465c3.763,0,7.268-2.381,8.522-6.145l8.982-26.947 C333.461,406.836,330.917,401.748,326.211,400.178z" style="fill: rgb(255, 215, 0); fill-opacity: 0.34;"/>
    </g>
  </g>
</svg>